<?xml version="1.0" encoding="UTF-8"?>
<svg id="Capa_1" data-name="Capa 1" xmlns="http://www.w3.org/2000/svg" viewBox="0 0 500 620">
  <defs>
    <style>
      .cls-1 {
        fill: #6f7092;
      }

      .cls-2 {
        fill: #6d7287;
      }

      .cls-3 {
        fill: #616d87;
      }

      .cls-4 {
        fill: #446a9c;
      }

      .cls-5 {
        fill: #6982a9;
      }

      .cls-6 {
        fill: #0e1945;
      }

      .cls-7 {
        fill: #1d3c71;
      }

      .cls-8 {
        fill: #1a498c;
      }

      .cls-9 {
        fill: #172a59;
      }

      .cls-10 {
        fill: #ccc7c3;
      }

      .cls-11 {
        fill: #405072;
      }

      .cls-12 {
        fill: #061846;
      }

      .cls-13 {
        fill: #3e4f7b;
      }

      .cls-14 {
        fill: #6f7389;
      }

      .cls-15 {
        fill: #3b5a8d;
      }

      .cls-16 {
        fill: #15447b;
      }

      .cls-17 {
        fill: #fbfcfd;
      }

      .cls-18 {
        fill: #a69c9c;
      }

      .cls-19 {
        fill: #3a5680;
      }

      .cls-20 {
        fill: #374f80;
      }

      .cls-21 {
        fill: #6d778d;
      }

      .cls-22 {
        fill: #223e72;
      }

      .cls-23 {
        fill: #0b1d4e;
      }

      .cls-24 {
        fill: #133b75;
      }

      .cls-25 {
        fill: #647693;
      }

      .cls-26 {
        fill: #869bbc;
      }

      .cls-27 {
        fill: #0d2960;
      }

      .cls-28 {
        fill: #8e8e9a;
      }

      .cls-29 {
        fill: #b1acab;
      }

      .cls-30 {
        fill: #20264d;
      }

      .cls-31 {
        fill: #6882a9;
      }

      .cls-32 {
        fill: #0b2965;
      }

      .cls-33 {
        fill: #0a041a;
      }

      .cls-34 {
        fill: #516e99;
      }

      .cls-35 {
        fill: #747b92;
      }

      .cls-36 {
        fill: #384068;
      }

      .cls-37 {
        fill: #516791;
      }

      .cls-38 {
        fill: #a2a6b5;
      }

      .cls-39 {
        fill: #f3f7f8;
      }

      .cls-40 {
        fill: #30406b;
      }

      .cls-41 {
        fill: #aeb5c2;
      }

      .cls-42 {
        fill: #d1c7bd;
      }

      .cls-43 {
        fill: #dad0c8;
      }

      .cls-44 {
        fill: #2d548a;
      }

      .cls-45 {
        fill: #c7c1c0;
      }

      .cls-46 {
        fill: #d8cfc8;
      }

      .cls-47 {
        fill: #9a949a;
      }

      .cls-48 {
        fill: #6586b4;
      }

      .cls-49 {
        fill: #30426c;
      }

      .cls-50 {
        fill: #183369;
      }

      .cls-51 {
        fill: #365389;
      }

      .cls-52 {
        fill: #fcfdfc;
      }

      .cls-53 {
        fill: #6582ac;
      }

      .cls-54 {
        fill: #22427b;
      }

      .cls-55 {
        fill: #94939b;
      }

      .cls-56 {
        fill: #55678f;
      }

      .cls-57 {
        fill: #334f7d;
      }

      .cls-58 {
        fill: #18376b;
      }

      .cls-59 {
        fill: #0e1c4c;
      }

      .cls-60 {
        fill: #0d1846;
      }

      .cls-61 {
        fill: #6984aa;
      }

      .cls-62 {
        fill: #646b80;
      }

      .cls-63 {
        fill: #0b3473;
      }

      .cls-64 {
        fill: #bebcc0;
      }

      .cls-65 {
        fill: #072058;
      }

      .cls-66 {
        fill: #b0afb9;
      }

      .cls-67 {
        fill: #3c5081;
      }

      .cls-68 {
        fill: #aca5a8;
      }

      .cls-69 {
        fill: #081546;
      }

      .cls-70 {
        fill: #4f6290;
      }

      .cls-71 {
        fill: #33578a;
      }

      .cls-72 {
        fill: #6888b5;
      }

      .cls-73 {
        fill: #16173d;
      }

      .cls-74 {
        fill: #294c81;
      }

      .cls-75 {
        fill: #d2cac5;
      }

      .cls-76 {
        fill: #113b77;
      }

      .cls-77 {
        fill: #b6aead;
      }

      .cls-78 {
        fill: #040c31;
      }

      .cls-79 {
        fill: #a4a7b3;
      }

      .cls-80 {
        fill: #858a99;
      }

      .cls-81 {
        fill: #bdb5b4;
      }

      .cls-82 {
        fill: #a7a7b5;
      }

      .cls-83 {
        fill: #cac4c2;
      }

      .cls-84 {
        fill: #2c4876;
      }

      .cls-85 {
        fill: #626c8c;
      }

      .cls-86 {
        fill: #0c2c6b;
      }

      .cls-87 {
        fill: #030e3c;
      }

      .cls-88 {
        fill: #9f9b9c;
      }

      .cls-89 {
        fill: #70738c;
      }

      .cls-90 {
        fill: #11275b;
      }

      .cls-91 {
        fill: #1d3061;
      }

      .cls-92 {
        fill: #516e98;
      }

      .cls-93 {
        fill: #050d3b;
      }

      .cls-94 {
        fill: #0e2d64;
      }

      .cls-95 {
        fill: #050e42;
      }

      .cls-96 {
        fill: #918d92;
      }

      .cls-97 {
        fill: #554f47;
      }

      .cls-98 {
        fill: #b5aead;
      }

      .cls-99 {
        fill: #4b76a9;
      }

      .cls-100 {
        fill: #0d3167;
      }

      .cls-101 {
        fill: #122859;
      }

      .cls-102 {
        fill: #0b346a;
      }

      .cls-103 {
        fill: #1f2a57;
      }

      .cls-104 {
        fill: #899ebf;
      }

      .cls-105 {
        fill: #0c1e4f;
      }

      .cls-106 {
        fill: #0c255c;
      }

      .cls-107 {
        fill: #072d66;
      }

      .cls-108 {
        fill: #8890a6;
      }

      .cls-109 {
        fill: #375a82;
      }

      .cls-110 {
        fill: #a8a0a7;
      }

      .cls-111 {
        fill: #050b38;
      }

      .cls-112 {
        fill: #3b5587;
      }

      .cls-113 {
        fill: #6c7286;
      }

      .cls-114 {
        fill: #6883a7;
      }

      .cls-115 {
        fill: #567095;
      }

      .cls-116 {
        fill: #bfbbbe;
      }

      .cls-117 {
        fill: #325788;
      }

      .cls-118 {
        fill: #3f4a76;
      }

      .cls-119 {
        fill: #27497a;
      }

      .cls-120 {
        fill: #717283;
      }

      .cls-121 {
        fill: #1b3d81;
      }

      .cls-122 {
        fill: #324d75;
      }

      .cls-123 {
        fill: #2a4273;
      }

      .cls-124 {
        fill: #0c265c;
      }

      .cls-125 {
        fill: #173166;
      }

      .cls-126 {
        fill: #174583;
      }

      .cls-127 {
        fill: #03081d;
      }

      .cls-128 {
        fill: #818aa3;
      }

      .cls-129 {
        fill: #9a9aa9;
      }

      .cls-130 {
        fill: #f7fafb;
      }

      .cls-131 {
        fill: #164681;
      }

      .cls-132 {
        fill: #808399;
      }

      .cls-133 {
        fill: #5e72a1;
      }

      .cls-134 {
        fill: #39557f;
      }

      .cls-135 {
        fill: #19366f;
      }

      .cls-136 {
        fill: #041447;
      }

      .cls-137 {
        fill: #122655;
      }

      .cls-138 {
        fill: #b9b2b2;
      }

      .cls-139 {
        fill: #928e9d;
      }

      .cls-140 {
        fill: #b6b5c1;
      }

      .cls-141 {
        fill: #4e6787;
      }

      .cls-142 {
        fill: #13417f;
      }

      .cls-143 {
        fill: #9f9ba1;
      }

      .cls-144 {
        fill: #132456;
      }

      .cls-145 {
        fill: #5c789c;
      }

      .cls-146 {
        fill: #6984ab;
      }

      .cls-147 {
        fill: #163c74;
      }

      .cls-148 {
        fill: #132e5f;
      }

      .cls-149 {
        fill: #34568d;
      }

      .cls-150 {
        fill: #59667d;
      }

      .cls-151 {
        fill: #8597b3;
      }

      .cls-152 {
        fill: #326097;
      }

      .cls-153 {
        fill: #1f3e77;
      }

      .cls-154 {
        fill: #d0ccc8;
      }

      .cls-155 {
        fill: #16295a;
      }

      .cls-156 {
        fill: #0e1f52;
      }

      .cls-157 {
        fill: #071445;
      }

      .cls-158 {
        fill: #233a6e;
      }

      .cls-159 {
        fill: #6085b4;
      }

      .cls-160 {
        fill: #396293;
      }

      .cls-161 {
        fill: #a4a3ab;
      }

      .cls-162 {
        fill: #cbc5c5;
      }

      .cls-163 {
        fill: #6882ab;
      }

      .cls-164 {
        fill: #6a7ea2;
      }

      .cls-165 {
        fill: #28578f;
      }

      .cls-166 {
        fill: #212d5a;
      }

      .cls-167 {
        fill: #728099;
      }

      .cls-168 {
        fill: #71778a;
      }

      .cls-169 {
        fill: #dfd5cb;
      }

      .cls-170 {
        fill: #3a537f;
      }

      .cls-171 {
        fill: #4e709a;
      }

      .cls-172 {
        fill: #9f948f;
      }

      .cls-173 {
        fill: #0b3671;
      }

      .cls-174 {
        fill: #6887b5;
      }

      .cls-175 {
        fill: #fbfdfd;
      }

      .cls-176 {
        fill: #eef3f6;
      }

      .cls-177 {
        fill: #d0cac6;
      }

      .cls-178 {
        fill: #f9fafb;
      }

      .cls-179 {
        fill: #c1bcc7;
      }

      .cls-180 {
        fill: #acaebb;
      }

      .cls-181 {
        fill: #111a47;
      }

      .cls-182 {
        fill: #7a798c;
      }

      .cls-183 {
        fill: #3b4d79;
      }

      .cls-184 {
        fill: #102c5f;
      }

      .cls-185 {
        fill: #6f7896;
      }

      .cls-186 {
        fill: #b1abaa;
      }

      .cls-187 {
        fill: #191534;
      }

      .cls-188 {
        fill: #506590;
      }

      .cls-189 {
        fill: #c3b9b2;
      }

      .cls-190 {
        fill: #0f2a5d;
      }

      .cls-191 {
        fill: #8b90a4;
      }

      .cls-192 {
        fill: #95a9c7;
      }

      .cls-193 {
        fill: #c4bbb5;
      }

      .cls-194 {
        fill: #5b6a84;
      }

      .cls-195 {
        fill: #09143f;
      }

      .cls-196 {
        fill: #6d829e;
      }

      .cls-197 {
        fill: #a99fa2;
      }

      .cls-198 {
        fill: #2a4180;
      }

      .cls-199 {
        fill: #68768a;
      }

      .cls-200 {
        fill: #050f3a;
      }

      .cls-201 {
        fill: #aea6a4;
      }

      .cls-202 {
        fill: #868799;
      }

      .cls-203 {
        fill: #7e8099;
      }

      .cls-204 {
        fill: #8b8b9e;
      }

      .cls-205 {
        fill: #455a87;
      }

      .cls-206 {
        fill: #968f90;
      }

      .cls-207 {
        fill: #072256;
      }

      .cls-208 {
        fill: #183a6c;
      }

      .cls-209 {
        fill: #17437c;
      }

      .cls-210 {
        fill: #15306f;
      }

      .cls-211 {
        fill: #1e2951;
      }

      .cls-212 {
        fill: #b9aea8;
      }

      .cls-213 {
        fill: #586e92;
      }

      .cls-214 {
        fill: #496490;
      }

      .cls-215 {
        fill: #123870;
      }

      .cls-216 {
        fill: #365690;
      }

      .cls-217 {
        fill: #6383b6;
      }

      .cls-218 {
        fill: #677091;
      }

      .cls-219 {
        fill: #cbc8cc;
      }

      .cls-220 {
        fill: #010c39;
      }

      .cls-221 {
        fill: #636f8d;
      }

      .cls-222 {
        fill: #adabb2;
      }

      .cls-223 {
        fill: #4f77a8;
      }

      .cls-224 {
        fill: #586c80;
      }

      .cls-225 {
        fill: #325b8d;
      }

      .cls-226 {
        fill: #3e6490;
      }

      .cls-227 {
        fill: #98a3b7;
      }

      .cls-228 {
        fill: #bcb6b6;
      }

      .cls-229 {
        fill: #1b2f5f;
      }

      .cls-230 {
        fill: #032058;
      }

      .cls-231 {
        fill: #6982ab;
      }

      .cls-232 {
        fill: #5f6581;
      }

      .cls-233 {
        fill: #062153;
      }

      .cls-234 {
        fill: #4b6994;
      }

      .cls-235 {
        fill: #142251;
      }

      .cls-236 {
        fill: #9e9fac;
      }

      .cls-237 {
        fill: #f4f7f9;
      }

      .cls-238 {
        fill: #6e82a0;
      }

      .cls-239 {
        fill: #b2b1bf;
      }

      .cls-240 {
        fill: #f7f9fb;
      }

      .cls-241 {
        fill: #7f899f;
      }

      .cls-242 {
        fill: #0a265b;
      }

      .cls-243 {
        fill: #0d1b48;
      }

      .cls-244 {
        fill: #1c3264;
      }

      .cls-245 {
        fill: #2c3864;
      }

      .cls-246 {
        fill: #134281;
      }

      .cls-247 {
        fill: #224c86;
      }

      .cls-248 {
        fill: #1c4476;
      }

      .cls-249 {
        fill: #f2f5f8;
      }

      .cls-250 {
        fill: #6885ac;
      }

      .cls-251 {
        fill: #979fb0;
      }

      .cls-252 {
        fill: #f3f6f8;
      }

      .cls-253 {
        fill: #04092d;
      }

      .cls-254 {
        fill: #2e416c;
      }

      .cls-255 {
        fill: #46689b;
      }

      .cls-256 {
        fill: #050c35;
      }

      .cls-257 {
        fill: #c7c3c1;
      }

      .cls-258 {
        fill: #787f96;
      }

      .cls-259 {
        fill: #c1bbba;
      }

      .cls-260 {
        fill: #2a426e;
      }

      .cls-261 {
        fill: #f6f8f9;
      }

      .cls-262 {
        fill: #122456;
      }

      .cls-263 {
        fill: #6682aa;
      }

      .cls-264 {
        fill: #21376e;
      }

      .cls-265 {
        fill: #203757;
      }

      .cls-266 {
        fill: #f9fbfb;
      }

      .cls-267 {
        fill: #cdc8ca;
      }

      .cls-268 {
        fill: #092050;
      }

      .cls-269 {
        fill: #b7b1ae;
      }

      .cls-270 {
        fill: #7a8397;
      }

      .cls-271 {
        fill: #2c3c68;
      }

      .cls-272 {
        fill: #052d6b;
      }

      .cls-273 {
        fill: #35497e;
      }

      .cls-274 {
        fill: #a9a5b1;
      }

      .cls-275 {
        fill: #6983aa;
      }

      .cls-276 {
        fill: #9796a4;
      }

      .cls-277 {
        fill: #7d8091;
      }

      .cls-278 {
        fill: #335176;
      }

      .cls-279 {
        fill: #beb5b4;
      }

      .cls-280 {
        fill: #133062;
      }

      .cls-281 {
        fill: #f6f9fa;
      }

      .cls-282 {
        fill: #f0f6f8;
      }

      .cls-283 {
        fill: #425a81;
      }

      .cls-284 {
        fill: #184278;
      }

      .cls-285 {
        fill: #fafcfc;
      }

      .cls-286 {
        fill: #fafcfd;
      }

      .cls-287 {
        fill: #0c2053;
      }

      .cls-288 {
        fill: #345081;
      }

      .cls-289 {
        fill: #67809a;
      }

      .cls-290 {
        fill: #182e5f;
      }

      .cls-291 {
        fill: #9598ab;
      }

      .cls-292 {
        fill: #16173f;
      }

      .cls-293 {
        fill: #7c8b9e;
      }

      .cls-294 {
        fill: #8f929c;
      }

      .cls-295 {
        fill: #868d9b;
      }

      .cls-296 {
        fill: #b9b1ac;
      }

      .cls-297 {
        fill: #c9c4c3;
      }

      .cls-298 {
        fill: #f5f7f9;
      }

      .cls-299 {
        fill: #9697a4;
      }

      .cls-300 {
        fill: #6f8ab9;
      }

      .cls-301 {
        fill: #6586b6;
      }

      .cls-302 {
        fill: #44638e;
      }

      .cls-303 {
        fill: #cec6c5;
      }

      .cls-304 {
        fill: #7b849a;
      }

      .cls-305 {
        fill: #2a2849;
      }

      .cls-306 {
        fill: #244076;
      }

      .cls-307 {
        fill: #d2cac3;
      }

      .cls-308 {
        fill: #6b7893;
      }

      .cls-309 {
        fill: #bfb8b6;
      }

      .cls-310 {
        fill: #6c82a5;
      }

      .cls-311 {
        fill: #989aac;
      }

      .cls-312 {
        fill: #7488a8;
      }

      .cls-313 {
        fill: #203769;
      }

      .cls-314 {
        fill: #203564;
      }

      .cls-315 {
        fill: #0e2559;
      }

      .cls-316 {
        fill: #9495a3;
      }

      .cls-317 {
        fill: #a09ba2;
      }

      .cls-318 {
        fill: #0c2f69;
      }

      .cls-319 {
        fill: #283764;
      }

      .cls-320 {
        fill: #426081;
      }

      .cls-321 {
        fill: #173c74;
      }

      .cls-322 {
        fill: #b4abaa;
      }

      .cls-323 {
        fill: #6483b0;
      }

      .cls-324 {
        fill: #6882af;
      }

      .cls-325 {
        fill: #a8a2ab;
      }

      .cls-326 {
        fill: #334265;
      }

      .cls-327 {
        fill: #0a2865;
      }

      .cls-328 {
        fill: #38567d;
      }

      .cls-329 {
        fill: #999ca9;
      }

      .cls-330 {
        fill: #7180a1;
      }

      .cls-331 {
        fill: #7e8aa0;
      }

      .cls-332 {
        fill: #505c7d;
      }

      .cls-333 {
        fill: #ccc7c4;
      }

      .cls-334 {
        fill: #112452;
      }

      .cls-335 {
        fill: #526b92;
      }

      .cls-336 {
        fill: #272b51;
      }

      .cls-337 {
        fill: #f7f9f9;
      }

      .cls-338 {
        fill: #2d4b7b;
      }

      .cls-339 {
        fill: #070b34;
      }

      .cls-340 {
        fill: #aea49f;
      }

      .cls-341 {
        fill: #093672;
      }

      .cls-342 {
        fill: #182962;
      }

      .cls-343 {
        fill: #3f587a;
      }

      .cls-344 {
        fill: #060624;
      }

      .cls-345 {
        fill: #48557c;
      }

      .cls-346 {
        fill: #304f78;
      }

      .cls-347 {
        fill: #958f98;
      }

      .cls-348 {
        fill: #9a9eac;
      }

      .cls-349 {
        fill: #09184d;
      }

      .cls-350 {
        fill: #cec2b7;
      }

      .cls-351 {
        fill: #cac6c6;
      }

      .cls-352 {
        fill: #6d7a95;
      }

      .cls-353 {
        fill: #f6f9fb;
      }

      .cls-354 {
        fill: #f5f8f9;
      }

      .cls-355 {
        fill: #6782a8;
      }

      .cls-356 {
        fill: #eff4f7;
      }

      .cls-357 {
        fill: #485781;
      }

      .cls-358 {
        fill: #6790c1;
      }

      .cls-359 {
        fill: #fefefe;
      }

      .cls-360 {
        fill: #456693;
      }

      .cls-361 {
        fill: #456895;
      }

      .cls-362 {
        fill: #6383ac;
      }

      .cls-363 {
        fill: #6c89b5;
      }

      .cls-364 {
        fill: #b1a8aa;
      }

      .cls-365 {
        fill: #0f1b45;
      }

      .cls-366 {
        fill: #0c1f4e;
      }

      .cls-367 {
        fill: #7385ab;
      }

      .cls-368 {
        fill: #6683ab;
      }

      .cls-369 {
        fill: #4f6e99;
      }

      .cls-370 {
        fill: #6682a9;
      }

      .cls-371 {
        fill: #071951;
      }

      .cls-372 {
        fill: #6f7b97;
      }

      .cls-373 {
        fill: #a79fa1;
      }

      .cls-374 {
        fill: #314f75;
      }

      .cls-375 {
        fill: #11143a;
      }

      .cls-376 {
        fill: #385281;
      }

      .cls-377 {
        fill: #32578a;
      }

      .cls-378 {
        fill: #0b1c4c;
      }

      .cls-379 {
        fill: #6c83a5;
      }

      .cls-380 {
        fill: #17457b;
      }

      .cls-381 {
        fill: #213e71;
      }

      .cls-382 {
        fill: #6682ae;
      }

      .cls-383 {
        fill: #f7f9fa;
      }

      .cls-384 {
        fill: #081d4f;
      }

      .cls-385 {
        fill: #878492;
      }

      .cls-386 {
        fill: #446583;
      }

      .cls-387 {
        fill: #fdfefe;
      }

      .cls-388 {
        fill: #d8cfc7;
      }

      .cls-389 {
        fill: #bdb9bc;
      }

      .cls-390 {
        fill: #697489;
      }

      .cls-391 {
        fill: #223267;
      }

      .cls-392 {
        fill: #6f7188;
      }

      .cls-393 {
        fill: #f5f7f8;
      }

      .cls-394 {
        fill: #b6afb0;
      }

      .cls-395 {
        fill: #3f4970;
      }

      .cls-396 {
        fill: #c0b9b4;
      }

      .cls-397 {
        fill: #697a98;
      }

      .cls-398 {
        fill: #7c8da4;
      }

      .cls-399 {
        fill: #9c9c9f;
      }

      .cls-400 {
        fill: #6c82a1;
      }

      .cls-401 {
        fill: #294c7b;
      }

      .cls-402 {
        fill: #96aac2;
      }

      .cls-403 {
        fill: #26386a;
      }

      .cls-404 {
        fill: #9298a8;
      }

      .cls-405 {
        fill: #4b5071;
      }

      .cls-406 {
        fill: #0c3067;
      }

      .cls-407 {
        fill: #0f3e7a;
      }

      .cls-408 {
        fill: #092e68;
      }

      .cls-409 {
        fill: #06265c;
      }

      .cls-410 {
        fill: #f4f7fa;
      }

      .cls-411 {
        fill: #6d768f;
      }

      .cls-412 {
        fill: #395482;
      }

      .cls-413 {
        fill: #334671;
      }

      .cls-414 {
        fill: #3f5685;
      }

      .cls-415 {
        fill: #a59d99;
      }
    </style>
  </defs>
  <path class="cls-169" d="M1.02,0h498.98v497l-.96,2H2.27l-1.25-2C.14,334.05.14,163.2,1.02,0Z"/>
  <path class="cls-217" d="M500,497v123H1.02C.25,579.66-.08,538.99.02,498v-1c.28-.87.62-.86,1,0h498.98Z"/>
  <rect class="cls-97" x=".02" width="1" height="497"/>
  <polygon class="cls-265" points="1.02 620 .02 620 .02 498 1.02 620"/>
  <path class="cls-135" d="M262.01,188c.82-1.96,2.92-1.13,3,1,.37,1.01.79,1.5,1,2,1.08,2.88,1.69,7.63-2,5-.29,1.94-1.09,1.83-2,0-1.82,1.44-4.54,1.42-8.18-.05-2.12,1.49-5.43,3.14-6.82.05-.62.99-.95.66-1-1,.54-1.6,1.33-1.99,2-3,2.49-3.33,4.49-4,6-2,1.63-2.78,5.15-3.16,8-2Z"/>
  <path class="cls-225" d="M239.01,283c2.01.81,2.14,2.3.41,4.48l.59,1.52,1,3c.92.1.86.45,0,1,.7,1.69-.28,5.14-2,5-.75-1.33-1.09-.66-1,2,1.58-1.8,2.58-1.3,3,1,.08,1.9.13,3.88.17,5.93l-5.17-.93c-.31.09-.69-.08-1,0-1.36.46-2.45.54-2-1-2.51-1.7-1.44-3.83,1-5-1.28-.98-.98-2.76,0-4-.8-1.08-.07-2.29,1-3,.51-4.17,1.84-7.51,4-10Z"/>
  <path class="cls-10" d="M233.01,249c.92.1.86.45,0,1,1.82,5.68,3.16,11.68,4,18,5.13.77,5.93,1.11,4,6l-.73,5.04c1.92,1.49,1.17,3.7-1.27,3.96-1.69,3.12-2.7,6.67-4,10-.28.87-.62.86-1,0,3.11-5.87,2.92-12.41,4.22-18.28.23-1.02,2.15-2.27,1.78-2.7-.28-.33-2.98.18-4.31-2.28-2.18-4.04-3.09-17.99-3.7-18.75-.12-.15-3.66.16-3.82.27-.42.28-1.74,1.7-3.18,2.75-.87-.28-.86-.62,0-1-.8-2.4-.5-2.82,2-2-1.16-3.72,4.02-3.08,6-2Z"/>
  <path class="cls-312" d="M250.01,299c1.15,3.32,1.12,5.02-.09,5.09l-.91.91,2,2c.75-2.26,4.39-3.52,6-1,.25-2.29.89-1.85,2,0,.89-1.52,1.22-1.19,1,1-4.02.13-11.67,1.91-16.46,1.63-.68-.04-5.98-2.33-7.54-2.63,1.89-.53,3.9.17,3.99,0,.16-.3-.88-1.81,1.01-5,1.82-1.85,2.03-.04,1,2,1.25.77,2.59,1.44,4,2,.71-2.08,1.38-4.08,2-6,.28-.87.62-.86,1,0,.28-.87.62-.86,1,0Z"/>
  <path class="cls-203" d="M214.01,239v1l2.12-.55c.78,1.48,2.08,3,3.88,4.55,1.56-.75,2.09-.41,1,1,2.04.54,1.96,2.89-.25,7.06l1.25-.06c2.01.3,2.06,2.34,1,4,1.3,1.93.76,2.46-1,1-1.31.06-3.25-.05-5,0-1.49,1.22-2.03.64-1-1-1-1.27-.67-2.94,1-5-2.16-1.2-1.45-2.37,1-2l-1-2c-2.35-.29-3.35-1.29-3-3-1.38.45-2.38-.88-3-4-.86-.34-.86-.67,0-1,1.75-1.15,2.75-1.15,3,0Z"/>
  <path class="cls-369" d="M478,473c.99-1.06,3.73-6.21,5-5.51,1.43.79-.92,16.55-.01,19.51-3.86-2.47-2.36-8.59-2.99-12-2.36.48-3.17.49-2-2Z"/>
  <path class="cls-308" d="M286.01,267c2.27.31,4.08,1.82,2,4,1.11,1.13,1.4,2.5,1,4,2.37-.71,2.71-.04,1,2,.94-1.23,2.44-.69,2,1,2.29,1.17,2.63,2.17,1,3-3.67-1.83-10.02-5.85-11-10-1.69-2.47-1.69-3.81,0-4,.51-1.67,3.18-1.48,4,0Z"/>
  <path class="cls-392" d="M272.01,270c.42,6.93,5.96,18.33,9.11,24.19.5.94,1.69.87,1.86,1.54.33,1.29.16,3.81.03,5.27-.28.87-.62.86-1,0-2.87-.85-2.44-1.54,0-3-3.55-2.73-5.92-5.79-7.13-9.17l1.13-.83-2.35-.6c.62-3.33-1.01-7.32-2.65-10.4-.28.87-.62.86-1,0-2.49-1.39-1.88-3.83,1-4-2.55-2.38-2.55-4.05,0-5,2.41-2.2,2.73-.48,1,2Z"/>
  <path class="cls-204" d="M251.01,202c1.05,1.28,1.65,2.94,1.79,5,2.45-1.14,5-.63,4.48,2.25-.02.11-1.4-1.39.73-1.24.72-2.64,1.07-2.58,2,0,1,1.11,1.27,2.15,0,3-.83,1.67-4.33,1.7-6,1-.83,2.89-1.55,2.45-3,0-1.38-2.02-3.43-1.75-5,0-.34.87-.67.87-1,0-.07-1.99.1-4.01,0-6,.62-1.22,1.62-2.22,3-3,.22-1.5,1.97-2.09,3-1Z"/>
  <path class="cls-182" d="M234.01,208c2.6,2.77,4.75.84,4.94,1.04.63.69.53,4.43,4.58,5.95,2.42.91,1.13-2.19,1.48-2.99.06-.13.92.13,1,0v1c1.9.3,1.8,1.09,0,2,.54.75.82,1.41,0,2-.88,1.84-2,2.35-4,2-.17,2.64-1.06,2.43-2,0-.9-.1-.84-.45,0-1-2.65.27-3.31-.73-2-3-2.34-1.17-4.34-2.5-6-4-.01-1.26.65-2.26,2-3Z"/>
  <path class="cls-66" d="M273.01,260c3.37-1.04,6.03.62,8,5,.19-.89.52-.86,1,0,2.66.32,2.54,1.24,0,2,0,1.18-.23,3.04,0,4l-4.59-5.07c-2.93.21-3.4,2.6-5.41,4.07-.05-.84-.03-1.74-1-2-.72-.67-.72-1.38,0-2l2-4c-1.63-.53-1.57-1.36,0-2Z"/>
  <path class="cls-389" d="M203.01,211c1.93,1.66.2,3.98-2,4,2.23,1.54.63,4.91-2,5,.85,1.47.41,2.03-1,1-1.03,3.29-3.7,1.45-5-1,.03-5.67,5.67-4.76,6.59-5.96.57-.74-.76-4.49.42-6.03l2.99,2.99Z"/>
  <path class="cls-83" d="M304.01,225c3.85-2.02,6.5-2.28,8,2,.97,5.22-2.59,8.49-6,4-2.81,4.13-4.75-3.34-1-5l-1-1Z"/>
  <path class="cls-270" d="M302.01,265c.08,3.52.92,9.64.7,12.36-.02.29-1.51,5.43-1.73,5.62-1.1.97-6.65-1.33-7.97-1.99,1.29-.79,2.96-1.46,5-2,1.14-4.22,2.14-8.55,3-13-2.63-.54-2.49-1.15,0-2,.28-.87.62-.86,1,0,.83.19.79.53,0,1Z"/>
  <path class="cls-372" d="M234.01,296c-.57,1.25-.91,2.58-1,4-.98,1.91-1.98,3.91-3,6,1.17-.52,3.05-.49,3,1-.18.04-.64.79-1.55.94-13.59,2.3.41-10.91,2.55-14.94h1c-.37.94-.52,1.91-1,3Z"/>
  <path class="cls-277" d="M227.01,203c1.59.37,3.66,1.05,5,2,1.74,3.88,1.41,5.88-1,6-3.35,2.21-4.68,1.88-4-1-2.06.55-2.8-1.14-3-3-.87-.28-.86-.62,0-1-.88-.65-1.22-1.65-1-3,.77-2.64,3.26-2.53,4,0Z"/>
  <path class="cls-145" d="M200.01,226c.89.19.86.52,0,1,1.79,4.48,1.95,5.84-3,5,1.35,1.25,2.73,3.34,0,4,.88.19.84.52,0,1-.28.87-.62.86-1,0-1.06-.26-1.39-1.26-1-3-1.85-1.34-1.52-3.34,1-6,.27-.98.69-2,1-3-1.72-1.81-1.38-3.14,1-4,.11-.31.87-.65,1-1,2.6-1.37,2.93.63,1,6Z"/>
  <path class="cls-373" d="M312.01,235c-1.16,2.67-4.57,4.06-6,1-2.88-.8-4.07-6.17,0-5,3.29-1.19,4.61,2.65,6-4,1.19,3.41.91,4.35,0,8Z"/>
  <path class="cls-299" d="M269.01,206c-1.89.07-2.89,1.4-3,4,.3,2.65-.36,2.99-2,1-.51,1.21-1.28,1.13-2,0-2.72-1.26-1.57-8.3,1-4l.93,1c-.13,3.13-.58-2.55,1.07-3,1.08-1.36,1.08-2.03,0-2-.27.9-.6.88-1,0-1.69,1.22-1.69-.52-1-2-1.29-1.07.07-4.52,2-3-.37-1.33,1.8-1.88,3-2,.65,2.81,1.84,7.09,1,10Z"/>
  <path class="cls-118" d="M248.01,192c2.28-3.46,2.92-5.64,7.76-6.73,1.12-.25,8.84.5,9.19.8.43.37-.19,2.27.05,2.93-.92-.53-1.93-.9-3-1-3.03-1.17-6.1-.73-8,2-2.16.67-4.01.29-6,2Z"/>
  <path class="cls-38" d="M198.01,248c.87.28.86.62,0,1,.15.88-.85,1.21-3,1,1.13,1.12.73,1.41-.54,1.88l.54,3.12c1.68.21,1.68,1.54,0,4-2.6-.79-2.97-3.71-3-6-1.76-1.48-1.43-2.15,1-2-1.39-.03-1.33-1.79-1-3-1.51,1.34-2.08.77-1-1,1.7-2,3.36-2.66,5-2,.27-.89.6-.87,1,0,2.85-.57,3.33,1.4,1,3Z"/>
  <path class="cls-316" d="M306.01,237c2.87.82,3.14,1.93,1,4,2.38-.29,2.71,1.71,1,6-.71,1.08-1.83,1.72-2,2-2.61.32-3.73-2.11-2-4-1.39-1.2-2.66-8.18,1-8,.28-.87.62-.86,1,0Z"/>
  <path class="cls-348" d="M200.01,267c1.8-.36,3.14-.03,4,1-5.2,2.27-6.04,4.02-11,1-3.01-3.16-.84-4.05,3-5,2.1-2.22,4.37.45,4,3Z"/>
  <path class="cls-132" d="M304.01,216c.43,2.31.09,3.97-1,5,.3,1.48-.82,3.19,1,4,.41.18,1.38-.14,2,.01.18,1.07-.97.93-1,.99-1.44,2.22-2.44,2.55-3,1-2.17.16-1.59-3.39-1-5-1.21-2.73-1.55-5.07-1-7,.17-2.06,1.56-1.98,2,0,.7-6.17,4.36-2.55,2,1Z"/>
  <path class="cls-330" d="M492,470c.51,2.83.18,4.83-1,6,.15,3.98.82,7.65,2,11-.03.6.11,1.9,0,1.99-4.41,3.69-2.52-14.3-3-15l-1.98,1.01c-.96-1.61,1.72-8.06,3.99-5.01Z"/>
  <path class="cls-191" d="M220.01,202c-1.01.62-1.68,1.28-2,2,.22,1.32-1.11,2.65-4,4,.23,2.71-1.27,2.82-3,1-3.15.55-2.6-2.01-1-4-.87-.28-.86-.62,0-1,2.88-1.29,5.71-3.24,9-4,2.47-.21,2.82.22,1,2Z"/>
  <path class="cls-35" d="M305.01,254c.3,1.47.18,2.95-1,4,2.59-.57,2.82.07,1,2-.65.82-.49,4.5-3,5,0-.33,0-.67,0-1l-1.34-.43c.11-2.36.22-4.54.34-6.57-2.08-1.17-1.14-3.04,1-3,.91-1.75,1.5-2.79,3-1,.9.18.86.52,0,1Z"/>
  <path class="cls-226" d="M280.01,301c1.85.37,1.85,2.37,0,6-1.18,1.14-2.08.14-4,0-1.58-.07-2.45-1.49-2-3,.44-4.17,5.01-9.1,6-3Z"/>
  <path class="cls-398" d="M471,475c1.16.18,1.5,1.18,1,3,.32,3.81.18,8.23-.5,11.99-2.56-2.61-1.38-7.13-1.5-10.54-.07-1.92,1.02-4.01-2-3.45-1.19-2.18,2.6-3.59,3-1Z"/>
  <path class="cls-283" d="M263.01,299c.69-3.3,4.55-.6,4.3.55-.03.16-2.71-.03.7-.55,3.92-.47,3.23,4.44,0,5-.18.9-.52.86-1,0-.67.01-1.33-.02-2,0-.09.65.07,1.36,0,2-.28.87-.62.86-1,0-1.92.36-2.32-.53-1-2-.91-.24-.88-.57,0-1-.81-1.27-1.44-3.11,0-4Z"/>
  <path class="cls-335" d="M207.01,208c.86.64,1.19,1.64,1,3,1.37,2.08-1.16,5.09-4,4,.36,3.04-4.4,4.02-3,0,.92-1.99-.22-1.18,2-4,.27-.34.68-.67,1-1,.31-2.01,1.27-4.03,3-2Z"/>
  <path class="cls-62" d="M247.01,196c2.94-.09,3.71,3.71,1,5,2.24.1,1.86,1.01,0,2,.03,1.33-.01,2.67,0,4l-2.99-1c-.15-3.03-.06-7.87,1-11,.46.13.92.54,1,1Z"/>
  <path class="cls-110" d="M280.01,209c.08-.15.04-4.32,2-2,.88,1.04-2.23,4.31,6,3.01l-1,2.98c1.61-.14,3.45.23,5,0,.87.28.86.62,0,1-2.11,2.09-2.87,1.81-5,0-.1.91-.45.86-1,0l-1-1c-3.69-.79-5.35-2.12-5-4Z"/>
  <path class="cls-241" d="M211.01,260c1.28.42,2.61.42,4,0-.24.52.47,2.37-.12,2.85-.47.39-2.54.07-3.79.71-3.03,1.54-3.19,2.74-7.09,4.44-1.87.54-2.66-.38-4-1-.53-3.01,1.46-3.63,3-1l3-1c-1.25-2.37,1.9-3.97,4-5,.3-.88.63-.87,1,0Z"/>
  <path class="cls-269" d="M189.01,241c1.69-1.32,2.69,0,3,4,1.36,1.03.45,1.61-1,2,.05.53.94.83,1,1-.18,1.28.16,2.28,1,3,0,.48-1.01,1.51-1,2-4.08.37-1.98-4.27-2.24-6.23-.35-2.68-.87-1.53-.76-5.77Z"/>
  <path class="cls-201" d="M308.01,247c.59-2.31-.57-4.1-1-6,1.41-2.58,3.08-4.58,5-6,.45.07.81-.12.95.53,1.69,5.71-2.05,5.45-3.38,7.56-.67,1.05-.64,2.49-1.57,3.91Z"/>
  <path class="cls-143" d="M306.01,249c.67,2.61,2.6,6.91,2.06,9.33-.28,1.27-2.61,1.1-3.06,1.67-.18-.61-.99-1.52-1-2,.9-1.16,1.23-2.5,1-4-.01-.33.02-.67,0-1-1.83-.65-1.89-1.54,0-2-2.08-2-1.8-2.72,1-2Z"/>
  <path class="cls-351" d="M191.01,239c.75-1.73,2.68-.91,2,1,1.26.83,1.45,5.93-1,5-3.33.82-1.05-2.37-3-4,.03-1.24-.22-2.95,0-4,.92-.99,1.59-.33,2,2Z"/>
  <path class="cls-98" d="M219.01,200c3.89-.9,8.24-2.13,8,3-1.11-.26-2.76.18-4,0-.25.87-.58.85-1,0-1.55,1.86-2.22,1.53-2-1-.06-.52-.84-1.35-1-2Z"/>
  <path class="cls-3" d="M493,484l-1.13-.15-.87-7.85c-.42-1.64.94-2.6-2-3.49l3-2.51c2.14,2.88.5,10.3,1,14Z"/>
  <path class="cls-379" d="M470,472c2.12-1.45,3.01,2.17,1,3-1.59-.36-1.96.2-3,1-1.3,1-4.38,4.3-2.84-.34.94-2.85,3.81-2.81,4.84-3.66Z"/>
  <path class="cls-14" d="M232.01,205c2.11,1.49,1.59,2.56,2,3l1,2.99h-3c-.33.87-.67.87-1,0,2.39-5.09-.56-3.56-.93-4.05-1.04-1.35.31-2.47,1.93-1.95Z"/>
  <path class="cls-296" d="M304.01,208c.43,1.21.18,1.61-1,1-.4,1.98-2.68,2.49-4,1-.4,1.97-3.55,4.21-5,2,1.53-3.21,7.21-7.06,10-4Z"/>
  <path class="cls-258" d="M299.01,210c2.66.32,2.54,1.24,0,2,.89.19.86.52,0,1-.09,2.32-6.47,4.92-7,1v-1c.55-.08,1.34-.78,2-1,1.97-.65,3.51-1.45,5-2Z"/>
  <path class="cls-108" d="M193.01,264c.88-.84,1.64-1.34,2,0,.24-.87.58-.85,1,0-.23.76.16,2.07,0,3l-2.99-.99v3c-2.63-1.6-3.4-.47-2.01-5,.85-1.25,1.48-1.62,2,0Z"/>
  <path class="cls-311" d="M198.01,260c1.75,1.91.68,4.21-2,4-.26-.11-.66.08-1,0,.08-.99-.59-.99-2,0-.59-.13-1.36.09-2,0,1.21-3.93,2.23-1.61,3.79-3.24.47-.49.07-1.62.21-1.76.2-1.82.86-2.49,2-2,1.15.76,2.28,2.22,1,3Z"/>
  <path class="cls-79" d="M195.01,234c.64,1.03.16,2.63-1,3-.31.85-.65.84-1,0-1.25-.19-1.58-1.19-1-3-1.15-.28-1.15-1.28,0-3,.99-1.03,3.33-1.15,4-3-.5,1.8-.49,4.21-1,6Z"/>
  <path class="cls-77" d="M227.01,256c5.7,1.82-1.62,3.99.62,2.74l.38,1.26c.17.18-.16.8,0,1,1.23,1.39.7,1.93-1,1-1.75-1.18-2.36-.84-4-3,.53-.77.87-1.77,1-3-.75-.2-.71-.54,0-1,.92.57,1.93.85,3,1Z"/>
  <path class="cls-116" d="M210.01,204v1c-.02,2.06-.65,4.16-3,3-.55.45-1.3.26-3,2-.93-6.23,3.03-4.67,6-6Z"/>
  <path class="cls-21" d="M217.01,257c-.09,1.27-1.68,2.29-2,3-.35,1.36-2.37,2.22-3.52,1.79-.92-.35-.28-1.57-.48-1.79.66-1.62,3.16-4.76,5-4,.39.17.89,1,1,1Z"/>
  <path class="cls-42" d="M227.01,256c2.37.34,5.2-.61,5,2.99l-4,1.01c-.2-.22-5.4-.14,0-2.48l-1.01-1.52Z"/>
  <path class="cls-110" d="M279.01,211c.87.28.86.62,0,1,1.31,1.45.74,1.89-1,1-4.16,1.39-7.49,1.05-10-1-.91-.18-.87-.52,0-1,3.91-.25,7.22,1.9,11,0Z"/>
  <path class="cls-326" d="M268.01,196c-.35,1.93-2.79,1.82-3,2-1.96,1.15-2.51-.62-1-2,3.42-.21,1.69-1.58,2-5,.81,1.95,1.3,1.97,2,5Z"/>
  <path class="cls-141" d="M473,471c.13,2.37.27,4.86-1,7-.01-.16-.76-1.82-1-3-.2-.98.42-2.54-1-3,.18-.15.98-.93,1-1,.03-2.12,1.57-2.08,2,0Z"/>
  <path class="cls-386" d="M493,484c.1.92.04,2.05,0,3-3.93.77-1.27-7.62-2-11,.55,2.15,1.78,6,2,8Z"/>
  <path class="cls-80" d="M478,473c.46.54,1.91,1.49,2,2-1.89.65-6.78,4.01-5-.5.54-1.35,2.79-1.28,3-1.5Z"/>
  <path class="cls-293" d="M282.01,301h1c-.17,2.04-1.41,4.46-3,6v-6c.21-2.3,1.31-2.23,2,0Z"/>
  <path class="cls-322" d="M192.01,234c.26,1.65-.07,2.65-1,3,1.91.56,1.91,1.44,0,2-.69-.38-1.33-1.46-2-2,.69-3.2.6-3.5,3-6-.13.94.2,2.16,0,3Z"/>
  <path class="cls-325" d="M304.01,216c1.43.34,2.09,1.01,2,2-.54,1.74-.9,3.54-3,3-.33-1.66-.58-3.35-.99-4.99.66-.02,1.33,0,1.99,0Z"/>
  <path class="cls-172" d="M280.01,209c1.16,2.13,3.29,2.42,5,4-1.12,1.6-5.2.48-6-1v-1c.02-.85.66-1.38,1-2Z"/>
  <path class="cls-29" d="M198.01,221c-.29.86-.54,2.51-1,4-1.19-2.29-4.02-2.03-4-5,1.65,1.33,3.07,2.64,5,1Z"/>
  <path class="cls-139" d="M223.01,250c1.58.09,2.6,1.44,2,3v1c-.5.36-.76.08-1,1-.07.26-.03.73,0,1-.28.87-.62.86-1,0l-1-4c-1.65-1.16-1.08-2.08,1-2Z"/>
  <path class="cls-289" d="M274.01,304c1.47.39,2,1.53,2,3-.99-.07-2.01.08-3,0-1.9-1.35-2.23-2.35-1-3,.59-1.91,1.48-1.9,2,0Z"/>
  <path class="cls-279" d="M269.01,206c-.11.37-1.85.89-2.04,1.73-.43,1.94.9,2.62,1.04,3.27.07.32-.06.68,0,1-2.2,3.25-3.56.86-2-2,.88-1.93-2.05-4.88,3-4Z"/>
  <path class="cls-41" d="M272.01,303c.89.19.85.52,0,1,.02.6,1.11,2.02,1,3-.59-.05-2.11-1.35-3-1-1.93.02-1.95-1.72,0-2-.65-2.81.13-3.23,2-1Z"/>
  <path class="cls-320" d="M270.01,304v2c-.22.08-1.26,2.58-1.99,2l-1.01-4c.33,0,.67,0,1,0,.75-1.32,1.42-1.32,2,0Z"/>
  <path class="cls-361" d="M260.01,298c.31,1.39.65,2.39,1,3,1.59-1.32,1.92.24,2,2,.02.33-.06.69,0,1-.56,1.23-.23,1.9,1,2h1c-.58,4.68-3.12.94-5,1-.22-.38-.9-.72-1-1-1.87-.54-2.63-4.05-2-6,.06-1.22.4-2.22,1-3,.41-1.62,1.74-.27,2,1Z"/>
  <path class="cls-109" d="M233.01,305c.28.03,1.25,1.1,2,1-.4.11-1.08.79-2,1-.89-.24-2.37-.4-3-1-1.17-3.01,2.26-4.52,3-1Z"/>
  <path class="cls-168" d="M471,471c.31-.85-.63-2.73.51-3.01,2.21-.54,1.39,1.16,1.49,3.01h-2Z"/>
  <path class="cls-340" d="M228.01,261c.42.51,2.4,2.68,2,2.99-2.13.73-2.23-1.48-3-1.99l1-1Z"/>
  <path class="cls-18" d="M305.01,212c-.12.99-.79.65-2-1-2.59-.5-2.5-1.14,0-2,.24-.07.62-.8,1-1,1.01,1.12.65,2.88,1,4Z"/>
  <path class="cls-385" d="M224.01,256c.18,1.56,2.82,3.43-1,3-.41-.55-.61-1.4-1-2,.77-.03,1.09-.18,1-1h1Z"/>
  <path class="cls-206" d="M306.01,216c.04.17,1.05.38.88,1.24-.08.42-.81.55-.88.76-.91-.34-1.78-1.03-2-2,.56-1.91,1.44-1.91,2,0Z"/>
  <path class="cls-47" d="M305.01,212c.31,1.01.71,2.81,1,4-.67,0-1.33,0-2,0-.26-1.12.19-2.75-.01-3.99h-.98c-.05,1.09.16,2.39-1.01,2.99-2.22.21-2.12-2.66,0-3-1.26-1.45-.7-1.98,1-1l2,1Z"/>
  <path class="cls-52" d="M46.02,528c4.47,1.49.53,10-4.15,8.14-3.28,2.85-3.51,3.51-.68,2,3.37,2.39,9.46-.2,12.95-2.11l6.25,2.11c5.71-3.4,7.94-1.84,12.82,1.65,1.92-6.38,11.04-1.52,14.3,2.25,1.65,2.49,6.05,9.09,8.31,7.03l2.21.93c8.38,21.42-11.12,47.18-34,46-4.29-1.6.02-4.87,3.49-3.92,1.66-3.49,4.95-4.53,8.58-3.58.5-1.68,1.79-2.83,3.26-3.7-3.27-5.55-.5-7.9,8.29-7.07,1.99-.36,4.31-9.28,2.6-11.3,2.53-2.95,5.08-8.74.26-5.16-1.66-.66-3.15-1.08-4.48-1.27-.07.89-.46,1.54-1.25,1.88-13.51-5.49-30.61-10.69-44.19-3.35.46,1.94-.06,3.09-1.56,3.47-.08,3.77-4.71,2.08-5.21-1.1-.22-.05-3.85,1.39-3.99,1.56-.5.61,2.95,11.39,3.54,13,7.87-3.23,9.95,3.58,2.65,6.54,3.52-4.39,9.31-1.79,7.34,4.05,3.87-.37,7.38,1.18,10.52,4.65,5.09-9.76,11.24-.11,5.14,4.29-7.46,1-21.12-5.26-23-13-.21,1.05-.88,1.05-2,0-11.31-14.95-11.48-41.31,6-51,1.98-1.76,3.98-2.76,6-3Z"/>
  <path class="cls-353" d="M320.01,595.5c-.54,1.74-7.16,3.91-7.9-2.08-1.78-14.4-1.61-51.3-.16-65.98.81-8.24,8.06-5.44,8.06-3.94v72Z"/>
  <path class="cls-52" d="M359.01,523.5c.89-2.86,7.38-2.89,8.06,3.94,2.04,20.75-1.62,44.9-.09,66.03-.97,5.18-7.97,3.8-7.97,2.03v-72Z"/>
  <path class="cls-286" d="M297.01,523.5c.89-2.86,7.38-2.89,8.06,3.94,2.04,20.75-1.62,44.9-.09,66.03-.97,5.18-7.97,3.8-7.97,2.03v-72Z"/>
  <path class="cls-266" d="M350.76,527.25c1.12,1.14,1.15,3.64,1.28,5.21,1.14,13.5,1.38,41.8-.04,55.06-.78,7.29-8.18,7.48-9.05,1.03l.04-59.05c.38-3.23,5.59-4.45,7.76-2.25Z"/>
  <path class="cls-298" d="M148.77,527.25c1.12,1.13,1.15,3.64,1.28,5.21,1.54,17.91-1.26,37.94,0,56.09-.84,6.38-8.18,6.65-9.06-1.03-1.41-12.18-1.3-43.75.02-56.03.49-4.6,4.4-7.63,7.76-4.24Z"/>
  <path class="cls-393" d="M336.01,591c-.95.23-1.93,1.86-3.54,2.01-.7.06-4.46-.78-4.46-1.01v-65c0-.48,7.1-2.3,8,2.5v61.5Z"/>
  <path class="cls-249" d="M390,592v-63.5c0-3.05,8-3.05,8,0v62c0,2.55-6.06,2.86-8,1.5Z"/>
  <path class="cls-237" d="M181.01,533c.79,17.65.79,35.32,0,53-1.14,3.3-9,3.01-9-.5v-52c0-.16,1.55-1.77,2.01-1.99,3.52-1.69,4.46.26,6.99,1.49Z"/>
  <path class="cls-285" d="M165.01,583c-.45.71-8,1.87-8-.5v-46.5c0-.76,8-1.7,8,1.5,0,6.02,1.22,43.58,0,45.5Z"/>
  <path class="cls-281" d="M258.01,536v46.5c0,1.77-7,3.16-7.97-2.03.92-12.82-1.33-27.46-.09-40.03.58-5.86,2.59-6.25,8.06-4.44Z"/>
  <path class="cls-354" d="M195.01,540c.62.12,1.03.26,1,1l-.2,36.3c-1.38,4.65-7.8,2.15-7.8.2v-36c0-1.85,5.5-1.55,7-1.5Z"/>
  <path class="cls-356" d="M445,572.5c-.85,3.05-9,4.04-9,0v-26c0-3.17,9-3.17,9,0,0,5.57,1.11,22.04,0,26Z"/>
  <path class="cls-410" d="M383,546c1.12,8.9.61,18.25,0,27-2.24,1.07-9,4.56-9-.5v-26c0-2.6,6.42-3.51,9-.5Z"/>
  <path class="cls-383" d="M210.01,544c.82-.57,1.49.1,2,2,.29,4.86.86,22.69-.2,26.3-1.18,4.01-8.07,4.25-8.84-1.75-.5-3.86-.6-19.46.07-23.02s3.74-3.81,6.97-3.53Z"/>
  <path class="cls-240" d="M282.15,574.86c-1.76-1.1-1.75-29.62,0-30.71,1.19-.74,5.22-.31,6.39.83,2.37,2.31,2.47,27.81-.51,29.53-1.12.65-4.92.94-5.87.35Z"/>
  <path class="cls-282" d="M34.02,582c.65-.06,1.36.09,2,0,.68,7.39,17.03,12.19,23,13,1.4-2.67,4.09-1.54,5,1,23.32-.75,40.04-23.44,34-46-2.5.74-2.72-.03-1-2-4-6.14-8.31-12.35-14.6-16.36l-.4-2.64c-1.16,1.67-2.07,1.09-2-1-3.97-1.31-7.83-2.18-11.58-2.62l-.42-1.38c-1.11,2.52-1.83,2.5-3,0-6.13.26-12.13,1.6-18,4-.27.89-.6.87-1,0-.74.26-5,2.44-6,3,20.25-18.76,53.64-6.52,59.7,19.8,8.99,39.06-41,63.85-65.7,31.2Z"/>
  <path class="cls-72" d="M233.01,526c.51-1.72.64-4.14,2.67-4.84,1.69-.59,8.33.42,8.33.84v73.5c0,3.24-7.17,3.17-9.39,2.56-.64-.17-1.36-3.19-1.61-4.06-1.08-22.5-1.11-45.48,0-68Z"/>
  <path class="cls-261" d="M452,545.5c.77-2.47,8-1.8,8,0v28c0,2.09-8,2.1-8,0,0-5.48-1.1-24.45,0-28Z"/>
  <path class="cls-48" d="M404,530c5.33-.83,8.34-2.02,11.96,2.72-.68,15.85.86,31.97.48,47.77-.17,6.85-1.27,11.8-9.73,9.29-.75-.22-2.7-1.9-2.7-2.29v-57.5Z"/>
  <path class="cls-72" d="M228.01,598h-10v-75.5c0-2.1,10-3.75,10,0v75.5Z"/>
  <path class="cls-48" d="M430,530v57.5c0,2.72-7.86,2.85-10,2.5v-60h10Z"/>
  <path class="cls-252" d="M474.86,553.14c1.53.94,1.54,10.48.25,12.28-.68.95-6.17.93-6.97.44-1.53-.94-1.54-10.48-.25-12.28.68-.95,6.17-.93,6.97-.44Z"/>
  <path class="cls-39" d="M265.01,563c-4.45-16.65,15.37-14.01,9,1-.32.22-.49,1.49-1.66,1.79-3.33.86-6.73,1.03-7.34-2.79Z"/>
  <rect class="cls-159" x="324.01" y="536" width="2" height="52"/>
  <path class="cls-176" d="M127.65,553.14c9.42-3.13,7.01,11.97,4.72,12.73-9.42,3.13-7.01-11.97-4.72-12.73Z"/>
  <rect class="cls-310" x="321.01" y="524" width="1" height="72"/>
  <rect class="cls-382" x="310.01" y="524" width="1" height="70"/>
  <path class="cls-323" d="M233.01,594c-1.95-6.81-2.02-61.23,0-68v68Z"/>
  <path class="cls-362" d="M336.01,591c1.7-.39.95-3.12,1-4.5.73-18.46-.96-37.09.5-55.51l.51,60.51c-.28,1.41-1.9-.52-2.01-.5Z"/>
  <path class="cls-196" d="M181.01,533c.05.02.82-1.86,1-.5v54.99c-1.32,1.58-.97-.74-1-1.5-.7-17.6.52-35.39,0-53Z"/>
  <path class="cls-324" d="M265.01,563l-1,2.5c.37-2.06-.48-13.03,0-13.5.3-.3,3.91.22,5.01,0l-1.01-1.98c6.89-.27,9.53,7.31,8.05,13.36-.3,1.2-1.78.45-2.04.63-.02-1.96.53-10.52-1.66-11.05-7.21-1.74-8.26,4.26-7.34,10.05Z"/>
  <rect class="cls-61" x="248.01" y="536" width="1" height="46"/>
  <rect class="cls-31" x="259.01" y="536" width="1" height="46"/>
  <path class="cls-275" d="M195.01,540c1,.03,2.01-.05,3,0-.35,11.46.47,23.05,0,34.52-.05,1.22.75,3.72-.99,3.48-.78-11.18.99-23.57.05-34.6-.14-1.63-.54-1.52-1.06-2.39-.2-.34-.75-.62-1-1Z"/>
  <rect class="cls-231" x="186.01" y="540" width="1" height="38"/>
  <rect class="cls-114" x="461" y="546" width="1" height="28"/>
  <path class="cls-238" d="M383,546c2.64,3.08.09,22.21,1,27.5-.18,1.36-.95-.52-1-.5v-27Z"/>
  <rect class="cls-53" x="372" y="546" width="1" height="26"/>
  <rect class="cls-368" x="24.02" y="552" width="1" height="14"/>
  <path class="cls-146" d="M210.01,544c-.01-.07,1.19-.37,1.01-.98l-7-.03,8-.99c.07,1.33-.09,2.68,0,4-.91-.34-1.84-.98-2-2Z"/>
  <path class="cls-355" d="M125,563.99c-1.75.23-.93-2.26-.99-3.48-.1-2.16.06-4.35,0-6.51,1.75-.23.93,2.26.99,3.48.1,2.16-.06,4.35,0,6.51Z"/>
  <path class="cls-163" d="M136,563.99c-1.75.23-.93-2.26-.99-3.48-.1-2.16.06-4.35,0-6.51,1.75-.23.93,2.26.99,3.48.1,2.16-.06,4.35,0,6.51Z"/>
  <rect class="cls-263" x="282.01" y="542.01" width="5.99" height=".98"/>
  <rect class="cls-370" x="376.01" y="542.01" width="5.99" height=".98"/>
  <rect class="cls-31" x="438.01" y="542.01" width="5.99" height=".98"/>
  <rect class="cls-5" x="158.02" y="585.01" width="5.99" height=".98"/>
  <path class="cls-153" d="M247.01,196l6.42-.93.58-3.08c1.87.1,2.5,3.36,3.21,3.79,1.1.65,3.35.16,4.78.22,1.66.16,1.92,1.79,0,2-.6,1.88-1.47,1.91-2,0-2.17,2.69-3.84,2.93-4.98.71-.89,1.05-1.9,1.48-3.02,1.29-1.1,1.24-2.88,2.41-4,1-.13-1.19-.73-3.38-1-5Z"/>
  <path class="cls-227" d="M264.01,196l1,2c-2,1.74-1.22,1.79-2,3,.48,1.41.32,1.72-1,1-.28.87-.62.86-1,0-1.8-.83-.66-3.66,1-4,.1-.63-.07-1.35,0-2,.65.03,1.35.04,2,0Z"/>
  <path class="cls-153" d="M262.01,188c-4.99-.46-4.94,1.05-8,2-.22-3.94,5.92-3.94,8-2Z"/>
  <rect class="cls-121" x="258.01" y="189.01" width="1.99" height="2.99"/>
  <path class="cls-208" d="M241.01,274c2,1.15,3.33,2.48,4,4,.44,1.57.44,3.57,0,6,1.06,2.58.55,3.1-2,2-.83,1.64-1.83,2.64-3,3-.38-.21-1.77.25-2,0-.2-.23.83-4.36,1-5.99.38-3.62.65-5.53,2-9Z"/>
  <path class="cls-247" d="M245.01,290c3.25-3.22,4.65.23,2,2-1.24.91-1.24,1.91,0,3,.28-.87.62-.86,1,0,.86.65.68,2.1,0,3-.28.87-.62.86-1,0-.18.89-.52.86-1,0-.7,1.76-1.58,1.84-2,0-1.08-.53-1.75-1.53-2-3-.52-.19-.85-.86-1-2,.05-.32,0-.67,0-1-.87-.2-.84-.54,0-1,.28-.87.62-.86,1,0,.97-1.01,1.97-1.34,3-1Z"/>
  <path class="cls-284" d="M234.01,300c-.13,1.72-.5,3.36-1,5-.94-.11-2.82-.24-3,1-2.78-2.64-.1-5.06,3-6,.28-.87.62-.86,1,0Z"/>
  <path class="cls-248" d="M242.01,295c1.04.83,1.04,2.17,0,4,1.16.91.5,2.29-1,2-.56-.3-1.62.46-3-1-.47-1.19-.33-1.91,1-2,1.1-1.87,1.67-2.71,2-5,1.25-.13.81,1.83,1,2Z"/>
  <path class="cls-63" d="M238,302.01c-.15,5.41-4.54,1.26-2.98-1.01.19-.28,1.93,1.47,2.98,1.01Z"/>
  <path class="cls-223" d="M239.01,298c-.38.64-.65,1.34-1,2-2.66-2.82,1.77-6,1-2Z"/>
  <path class="cls-109" d="M234.01,300h-1c-1.87-3.1.72-3.38,1-4-.07,1.32.1,2.68,0,4Z"/>
  <path class="cls-358" d="M241.01,291c.07.26,0,.67,0,1-3.33.35-1.84-.88-1-3,1.65-1.94,2.35.33,1,2Z"/>
  <path class="cls-50" d="M237.01,238c.87.28.86.62,0,1,1.11,5.56.57,11.4,0,17,.87.28.86.62,0,1-.84.05-1.17-.95-1-3-.85-.25-.83-.58,0-1-.18-1.72-.85-2.72-2-3-.28.87-.62.86-1,0-.03-.33.02-.67,0-1-1.98-.17-1.44-2.15,0-3,1.28-1.21,1.94-3.21,2-6-.76-.68-.78-1.39,0-2,.53-1.13,1.78-1.56,2,0Z"/>
  <path class="cls-377" d="M236.01,253c.06.3.01.69,0,1,.35,1.72.35,3.39,0,5,1.87-.84,2.42.58,1,2,1.34.36.98,4,0,5,1.67,1.71,1.67,2.38,0,2-2.54-4.93-3.48-12.34-4-18h1c1.16-.27,1.83.73,2,3Z"/>
  <path class="cls-276" d="M226.01,246c.66-1.51,1.45-1.59,2.37-.25,2.32-.94,3.86-.86,4.63.25.01.99-.07,2.01,0,3-2.21.54-4.04.6-6,2-1.63,1.36-2.14.81-1-1-1.52-.53-1.52-1.86,0-4Z"/>
  <path class="cls-215" d="M237.01,266c3.31-.37,5.64.29,7,2,.57,2.58.48,6.84-3,6-.18-7.23-1.56-2.4-3.89-4.13-.48-.35.05-1.57-.11-1.87v-2Z"/>
  <path class="cls-274" d="M226.01,250c.18.1.34,1,1,1-.46.33-.87,1.84-2,2-1.18-.79-2.32-1.38-2-3-.86-.29-.85-.62,0-1,1.97-1.83,2.97-1.49,3,1Z"/>
  <path class="cls-160" d="M251.01,298l1.01.26c-.03,4.73.3,5.97.99,3.74.27-.89.6-.87,1,0,.32-.88.66-.88,1,0,.28-.87.62-.86,1,0,1.26.27,2.21,3.12,1,4-2.09.31-3.61.95-6,1-.98.27-1.64-.39-2-2,.75-2.18.66-3.94,1-6-1.03-1.07-.47-1.67,1-1Z"/>
  <path class="cls-401" d="M246.01,298c-.17,1.86-.17,3.86,0,6v1c-.69.72-.84,2.39-2.49,1.99-1.94-.99-1.13-2.82-1.51-3.99.06-1.93.43-3.7,2-5,.48-.14,1.36.02,2,0Z"/>
  <path class="cls-131" d="M259.01,306c-.65.06-1.37-.1-2,0-.13-1.24-1.04-2.86-1-4-.86-1.2-.52-2.65,1-2,.14,1,1.51,4.68,2,6Z"/>
  <path class="cls-26" d="M251.01,295c.99.93,1.29,2.36,0,3-.46.13-.92.54-1,1h-1c-.86-.97-.75-3.79,0-5,1.43-1.4,2.27-.99,2,1Z"/>
  <path class="cls-346" d="M248.01,299c-.33,3.69.75,3.11-2,6v-1c-.74-1.85-.18-4.6,1-6h1c.7.14.65.49,0,1Z"/>
  <path class="cls-71" d="M242.01,303c-.29-.89.43-1.22-1-2,.33-.56.7-1.74,1-2-.66-2,.64-2.7,2-1-.15,1.68-.71,3.8-2,5Z"/>
  <path class="cls-343" d="M251.01,307c-1,.02-2,0-2.99,0-.55-1.76.94-1.82.99-1.99l1.99-1v3Z"/>
  <path class="cls-11" d="M249.01,294v5h-1c.03-.33-.02-.67,0-1,.06-.99-.09-2.02,0-3-2.1-3.67,2.84-4.08,1-1Z"/>
  <path class="cls-388" d="M205.01,242c3.39-2.6,3.86-.92,1.41,5.04l2.59,1.96c.28-.87.62-.86,1,0l.44,1.23c1.67-2.48,6.36-4.1,7.56-1.23-.45.76-.69,1.06-1,2-1.38,4.29-3.71,6.96-7,8-.96,1.71-3.25,4.02-5,3-2.59,1.13-3.26-.2-2-4-1.67,1.45-3.36-.19-2-2,.03-2.08.03-4.08,0-6-1.3-.14-2.25-.94-3-2l-1-3c-.14-1.97,2.47-1.86,4-1,.58-1.69,2.4-3.22,4-2Z"/>
  <path class="cls-307" d="M215.01,232c1.55-1.17,2.05-.64,1,1,1.41,0,4.51.77,4.14,2.95-.08.44-5.85,6.33-6.14,4.05-.09-.22.02-.65,0-1,.7-1.3-.3-1.3-3,0-1.09,2.68-2.31,3.84-4,1-1.93,1.07-2.06-2.22,0-2,0-2.86.66-5.2,2-7,1.51-1.84,5.96-2.46,6,1Z"/>
  <path class="cls-81" d="M218.01,231c1.47-.22,2.47.12,3,1,1.47-1.02,3.44,2.92,2,4-.71,2.26-.89,3.14.62,5.03l-1.62,1.97c-.12,1.02-1.04,1.45-2,1-.56-.19-1.67.4-2.69-.28-.21-.14-3.22-3.49-3.31-3.72l5-4.5c-1.39-.33-2.15-1.92-3-2.5-.51-1.42.64-3.15,2-2Z"/>
  <path class="cls-185" d="M233.01,236c.38,2.75-.28,3.75-2,3,.43.99.41,1.99,0,3-.53,1.06-1.91,2.02-3,1,.81,2.58.15,3.58-2,3-.24,1.15.16,2.75,0,4-.94-.53-1.93-.86-3-1,.21-1.73-.46-3.07-2-4-.35-.11-.7-.9-1-1,.34-1.01,1.26-.77,2-1,.16-2.66,3.39-6.42,6-5,1.07-2.58,2.4-3.58,4-3,1.45-1.31,2.06-.69,1,1Z"/>
  <path class="cls-138" d="M211.01,240c1.81.85,1.45,4.17-1,4,.34,1.86,0,3.52-1,5-7.7.43-1.65-6.62-2-6.99-.25-.26-1.65.21-2,0-.9-.24-.88-.58,0-1,.42-1.62.73-2.5,2-1,1.37-.38,2.35-.33,4-1-.16.08.14.75,0,1Z"/>
  <path class="cls-193" d="M217.01,247c.5.26,2.15-.18,3,0,.14,1.19-1.73,1.53-2,1.99-4.75-3.55-7.52,5.3-11.99,6-.73-.79,3.26-5.37,3.99-6-1.57-2.34-.45-3.36,2-2,.24-.91.57-.89,1,0,.48-1.55,1.81-1.55,4,0Z"/>
  <path class="cls-232" d="M221.01,245c.23.07,2.79-1.68,3.97,1.56.69,1.57-1.56,1.72-1.97,2.44-.14.25.14.74,0,1-.35.66-.66,1.39-1,2-.92,1.67-.65,3.59-2.99,2.99l1.99-9.99Z"/>
  <path class="cls-161" d="M216.01,256c-.55,1.1-3.46,3.76-5,4-.12-.13-.67.08-1,0-.54-.3-.53-.64,0-1,2.4-2.31,4.35-5.87,7-8-.44,1.31.11,2.78-1,5Z"/>
  <path class="cls-25" d="M211.01,240c3.06-.84,2.18,2.92,3,4,1.52,2.03,1.19,3.03-1,3-.35.06-.74-.1-1,0-2.37.13-2.5-.96-2-3,.12-.16.23-2.65,1-4Z"/>
  <path class="cls-199" d="M214.01,244c.14.19,2.79,2.89,3,3-1.28.14-2.8-.21-4,0l1-3Z"/>
  <path class="cls-81" d="M211.01,239c.88-.36,1.88-2.43,3.49-2.01,1.32.16-.53,1.49-.49,2.01-.81.18-2.5-.26-3,0Z"/>
  <path class="cls-119" d="M297.01,269c-3.44-2.05,2.61-1.87,3.12-.92.87,1.62-.75,8.65-3.12,8.92-.28.87-.62.86-1,0-2.1-.68-4.1-.68-6,0-.54-.87-.62-1.12-1-2-.26-1.53.07-2.19,1-2,1.57-1.96,2.23-1.62,2,1l2-4c-.87-.28-.86-.62,0-1,.29-.86.62-.85,1,0,1.3-1.42,1.97-1.09,2,1v-1Z"/>
  <path class="cls-76" d="M289.01,266c1.34-.17,2.34.16,3,1,2.73-1.9,2.77-.77,2,2v1c-.52,1.7-1.18,3.03-2,4-.4-.05-1.58-.7-2-1-.73.23-1.39-.44-2-2-.43-1.32-1.51-2.64-2-4-.97-1.62,1.69-1.82,3-1Z"/>
  <path class="cls-148" d="M289.01,265c.87.28.86.62,0,1-.12-.14-2.58.96-3,1-1.31.13-2.68-.09-4,0v-2c1.65-1.19,5.9-2.86,7,0Z"/>
  <path class="cls-390" d="M294.01,277c1.16.67,2.16,1.33,3,2,.28-.87.62-.86,1,0-1.12,1.67-2.93,2.94-5,2-.55-.25-.67-2.64-1-3-1.78-1.53.78-2.6,2-1Z"/>
  <path class="cls-302" d="M296.01,277c-.6,1.44-1.41,1.44-2,0-.84.1-1.71,0-2,1-.18-.2-1.55-.27-2-1,1.01-3.01,3.75-1.4,6,0Z"/>
  <path class="cls-302" d="M290.01,273l-1,2c-.71-1.65-.61-2.81-1-4,1.06.2,1.53,1.67,2,2Z"/>
  <path class="cls-365" d="M260.01,267c1.02.64,1.69,1.64,2,3,.81.96,1.48,2.29,2,4,.55-4.92,1.55-5.92,3-3,2.09-2.88,3.75-1.39,4,2-.11.73-.75,3.21-1,4,1.34,1.55.11,3.28-2,3-.99,2.18-3.37,1.91-7.14-.81-2.47.42-4.09.02-4.86-1.19-.87-.28-.86-.62,0-1-3.06-1.23-2.62-5.51,0-7-.44-4.04,1.88-7.65,4-3Z"/>
  <path class="cls-406" d="M276.01,288c-1.12,2.52-1.89,2.52-3,0-.45,1.05-.45,2.05,0,3l2.03-1.04c2.04,2.96,4.35,5.63,6.97,8.04.07.99-.05,2.01,0,3-.65-.07-1.37.1-2,0-.53-.08-2.49-1.6-2.99-1-.36.42,1.29,2.87-3.01,4-.55.14-1.37-.1-2,0-.01-.33,0-.67,0-1-1.78-1.73-2.88-7.95-2-10-1.82-2.59-2.37-5.05-2-8-1.76-1.19-3.34-4.75,0-5,1.23-.6,2.23-1.6,3-3,3.09,1.76,3.53,7.54,5,11Z"/>
  <path class="cls-103" d="M276.01,288c.31.72.31,1.72.76,2.69,1.28,2.71,5.07,5.04,5.24,7.31l-3.96-1.58c.36-2.97-3.12-3.95-5.04-5.42-1.44-1.72-1.44-2.72,0-3,1-.04,2,.03,3,0Z"/>
  <path class="cls-268" d="M271.01,277l1.99,10-4.99-7c-.5,1.84-.7,3.15,0,5,1.06,1.42.51,1.93-1,1-2.32.89-3.54-2.38-1-3-3.49.07-5.15-.93-5-3-2.98,3.09-5.02,3.68-6.1,1.76l1.1-1.76c-1.91-.56-1.91-1.44,0-2,4.65-1.13,7.54,2.74,12,2,.67-2.45,1.91-2.71,2-3h1Z"/>
  <path class="cls-254" d="M271.01,268c-.17,1.6.23,3.47,0,5-.46-1.58-2.43-1.96-4-2-2.09-.19-2.01-1.57,0-2-.52-1.72.48-2.72,3-3,.28-.87.62-.86,1,0-.06.66.07,1.35,0,2Z"/>
  <path class="cls-9" d="M251.01,212c.99-.08,2.01.08,3,0,.87.28.86.62,0,1,.88.19.85.53,0,1,.42,1.18.42,2.18,0,3,1.9.87,1.02,3.28-1,3,.52.93.75,2.3,0,3,2.49,1.29,1.75,2.54-1,2-.28.87-.62.86-1,0-1.15-.97-1.79-.57-2,1-1.17,1.83-3.17,2.83-6,3,.35,1.53-1.72,3.24-3,4-.28.82-.61.8-1,0-.8,3.08-2.13,4.41-4,4-1.58-1.76-1.58-4.09,0-7-2.13-1.6-.26-6.36,2-7-.86-.27-.84-.6,0-1,1.37-1.77,2.04-1.77,2,0,3.61-.45,9.29-2.18,7-7,.03-.66-.02-1.33,0-2,.19-2.75,3.89-3.41,5-1Z"/>
  <path class="cls-333" d="M252.01,200c.42-.83.77-2.82,1.62-3.04,4.06-1.06,3.2,1.9,3.41,2.02.5.27.77-1.2,2.97-.97.35,2.6-.28,7.84-2,10-.21.22-.17,5.43-2.48,0l-3.5,2.01c-1.87-3.79-2.09-4.02-1.02-8-1.15-.51-.82-1.18,1-2Z"/>
  <path class="cls-40" d="M260.01,211c.56-2.82.81-2.4,2,0,.64-.08,1.5.15,2,0,3.18.27,3.1,4.2,0,4-1.26-.32-2.26-.98-3-2-1.57,2.55-5.28,2.19-7,0v-1c1.33-.1,4.14-.74,6-1Z"/>
  <path class="cls-55" d="M262.01,198c-.22,1.35-.73,2.66-1,4,.65,2.51.32,4.51-1,6-.56.12-1.83-.18-2,0,.97-3.74-.39-6.46,2-10,.65.07,1.34-.05,2,0Z"/>
  <path class="cls-329" d="M262.01,202c.57.78.9,1.78,1,3,1.43.31,1.42,1.61,0,2-3.36-.56-1.58,1.52-1,4-.65.08-1.35-.09-2,0,0-1,.01-2,0-3-.04-3.16.56-3.8,1-6h1Z"/>
  <path class="cls-40" d="M246.01,212c.36-.64-1.05-1.68,1.46-2.07,2.35-.36,4.19-.36,3.54,2.07-.94.08-2.91-1.86-5,1v-1Z"/>
  <path class="cls-2" d="M251.01,202l-3,1c-.01-.51.01-1.9,0-2l4-1c-.25.49-.93,1.76-1,2Z"/>
  <path class="cls-186" d="M231.01,211c.3.1.71-.11,1,0,3.27,1.21,3.84,1.5,6,4-1.28,1.62-3.21,1.63-5.8.03-.28,4.11-5.38,7.06-7.2,2.97-2.53,1.07-2.29.06-1-2-2.36-1.68.14-6.32,3-6,1.32,1.14,2.93.63,4,1Z"/>
  <path class="cls-357" d="M246.01,215c4.1,2.45-3.78,9.63-5.51,9.99-.81.17-.29-2.29-1.49-2.99-1.66-.19-.53-3.38,1-3,.62.11,1.51-.17,2,0,2.23.04,2.73-.14,4-2,.11-.57-.03-1.35,0-2Z"/>
  <path class="cls-396" d="M240.01,218c-.48.77-1.14,1.44-2,2-1.1,1.59-2.43,2.25-4,2-1.04.8-1.52.15-2-1-.28.87-.62.86-1,0-.56-2.78,1.77-4.78,7-6,.76.88,1.82,1.76,2,3Z"/>
  <path class="cls-167" d="M242.01,219l4-2c-.83,4.16-1.42,2.88-4,2Z"/>
  <path class="cls-236" d="M240.01,218c.04.31.01.68,0,1,0,.21-1.63,1.82-1,3-.33-.2-1.42.13-2,0-1.48-1.07-.52-1.55,1-2,.39-1.01-.95-2.53,2-2Z"/>
  <path class="cls-181" d="M282.01,258c1.44,1.1,2.77,2.44,4,4,2.95-2.03,6.37-4.02,10.24-5.96l1.76,1.96c2.28,2.24,1.35,3.83-1.69,4.21-.05,2.36-2.33,4.1-4.31,2.79-.38,1.67-2.74,2-3,0-3.08-.49-3.89-.18-7,0-.33.02-.67-.01-1,0-.87-.28-.86-.62,0-1-1.02-3.98-.69-5.98,1-6Z"/>
  <path class="cls-411" d="M273.01,259c2.61-1.43,3.44-1.8,5.71-.14,1.64-2.12,2.4-.41,2.29,5.14v1c-5.09.17-1.95-4.77-8-5-.89-.26-.87-.6,0-1Z"/>
  <path class="cls-105" d="M280.01,246c1.91.3,1.8,1.09,0,2,1.77,1.12,1.24,4.32,0,6,1.76-.12,1.54,1.47,0,2-.68,1.85-2.35,1.79-3,0,.15,1.58-1.19,2.58-4,3-.1.2.04.64,0,1-.06.61-.07,1.39,0,2,.05,1.4-.62,2.73-2,4h-1c-3.17-1.14-.89-8.84,2-8-1.44-2.29-.28-3.25,2-2-1.36-1.25-.83-2.43,1-2,1.15-1.85,2.15-3.85,3-6-.91-.27-1.58-.94-2-2-1.04-.4-.7-1.06,1-2,1.69-4.26,3.85-2.35,3,2Z"/>
  <path class="cls-392" d="M273.01,262c.06.52,1.83,2.25.99,4-1.82.47-.34-1.78-1.49-2.01l-1.5,2.01c.18-1.8-.17-3.36,2-4Z"/>
  <path class="cls-128" d="M204.01,215c2.16-1.42,3.49-1.09,4,1,1.65.72.61,1.93-1,2,.53,2.33-3.48.45-3.27.47,3.85.36,5.54,2.78,7.27,5.53.28-.87.62-.86,1,0,.98,2.39-.22,2.9-2,1-1.04,2.17-2.71,1.51-5-2-1.69,1.4-3.35,2.4-5,3,.06-1.85.61-4.95-1-6,.71-1.95,1.1-3.05,2-5,.35,1.81,2.63-.03,3,0Z"/>
  <path class="cls-331" d="M305.01,226c-1.27,2.34-2.2,5.77,1,5-.15.05-1.94,2.36-2,2.51-.1.26,1.19-.02,2,2.49.89.27.87.6,0,1h-1c-1.42,1.21-1.93.68-1-1-2.61.4-3.74-1.54-1-3-3.2.55-3-1.96-1-4-2.08.01-1.95-1.34,0-2l3-1Z"/>
  <path class="cls-155" d="M302.01,251c2.87.17,2.14,1.69,0,3-.25.73-.88,2.9-1,3,.15,2.56.15,4.9,0,7,.15.17-.06,1.4,0,2,.17,3.54-.78,4.08-2.87,1.63l-3.13,1.37c-.24-.15-.74.14-1,0-.32-.18-.76-1.87-2-2-2.08.14-2.03-1.44,0-2,.22-.53,1.72-1.06,2.05-1.75.72-1.52-.38-3.13,1.45-4.23l2.49,1.98c.12-.97-.13-2.06.01-3-2.86-.27-2.73-2.19,0-3-1.14-1.41-.47-2.08,2-2-2.95-.89-1.56-2.9,1-2,.23-.91.57-.89,1,0Z"/>
  <path class="cls-260" d="M295.01,269v-2.99c3.44-.17,4.29,4.01,6,0,.51,5.52.05,8.46-3,13h-1c-2.42-.04-2.36-1.34,0-2,.95-2.94,2.99-5.2,1.99-9h-1.48c-.7.26-.44.9-.51,1v1c-.92.04-1.39-.63-2-1Z"/>
  <path class="cls-381" d="M301.01,257c1.4,2.18.94,4.61,1,7h-1c-.13-.16-3.04.63-2.03-2.51.22-.68,2.37-.15,2.02-.99s-3.03-2.05-1.94-3.46c.24-.31,1.71.15,1.95-.05Z"/>
  <path class="cls-43" d="M224.01,207c3.34.36,2.82,2.84,3,3-.65,1.64-2.09,4.66-3,6,.56,1.55-1.6,3.19-3,4,1.19,1.07,1.36,2.11,0,3,1.77,1.22,2.77,2.55,3,4,1.24,1.47.7,1.95-1,1-1.39,1.57-2.39,1.24-3-1-.98.97-1.98,1.63-3,2-.32.86-.65.86-1,0-1.39,1.48-2.01.84-1-1,.3-.95-.04-1.28-1-1,.81,6.54-8.93,1.61-4-2,.83-.02,1.41-.73,2-1-.28-1.14.39-1.81,2-2-1.89-.94-2.25-2.5,0-3-1.3-1.47-.73-2.02,1-1,1.37-1.54,1.37-3.21,0-5,.3-.95-.04-1.28-1-1-1.09,1.31-2.75,2.31-5,3,.17,1.3.19,1.71-1,1-1.52.78-3.46-.95-4-1,2.03-.56,2.88-3.06,4-4-1.09-2.06,1.23-3.92,3-2,1.08-.56,1.88-.71,3-1,2.93-3.46,6.94-2.7,10-1Z"/>
  <path class="cls-347" d="M222.01,203c.51,1.08,1.18,2.08,2,3v1c-1.82-.2-8.01.49-10,1-.52-2.08,2.27-3.01,4-4,.3-.87.96-1.54,2-2,1.08.1,1.86.98,2,1Z"/>
  <path class="cls-89" d="M223.01,203l3,1.01-2,1.99c-2.77.14-3.45.55-2.99-2.49l.99-.51c.33.04.67-.05,1,0Z"/>
  <path class="cls-259" d="M201.01,227c2.27-.37,5.63.95,7,3,1.37-1.61,2.03-.96,1,1,1.95,2.47-.83,4.78-2,7-.85-1.68-1.51-2.35-2-2l-.47.9c-.93-1.81-3.82-1.84-5.53-.9-.56,1.91-1.44,1.91-2,0,.07-1.13-.27-3.29,0-4,.81-.85,7.09-.6,6.99-.06-.21,1.1-6.04.34-2.99-4.94Z"/>
  <path class="cls-388" d="M199.01,236c6.74-3.16,7.82,6.02,2,6-.73,2.12-4.82,2.71-4,0-.82-.99-.73-3.79,0-5,0-.33-.02-.67,0-1,.67,0,1.33,0,2,0Z"/>
  <path class="cls-177" d="M200.01,226l2.01-5c2.2-.74,1.98,1.33,2.99,2,2.4,1.75,5.35,4.32,3,7-3.24-.89-4.45,1.07-7-3-.28.87-.62.86-1,0,.02-.33-.01-.67,0-1Z"/>
  <path class="cls-295" d="M201.01,227c.46,1.51.15,3.07,1.83,4,.7.39,2.53-.8,2.16.99-1.95.23-3.31,2.25-5.43,2.07-.6-.05-.53-2.85-2.57-2.06.71-1.87,2.53,1.58,3-5h1Z"/>
  <path class="cls-37" d="M196.01,237c.69.21.65.55,0,1-.28.87-.62.86-1,0-1.71,1.48-2.29.88-1-1-.55-1.36.81-2.33,1-3,1.32.51.94,1.9,1,3Z"/>
  <path class="cls-297" d="M197.01,242c-.28.87-.62.86-1,0-1.04-.91-.64-2.8,0-4,0-.33.02-.67,0-1h1v5Z"/>
  <path class="cls-162" d="M312.01,235c-.71,2.86-1.07,6.81-5,6-.3-1.32-.62-2.7-1-4-.09-.31.1-.7,0-1,1.93.13,4.22-1.26,6-1Z"/>
  <path class="cls-413" d="M266.01,210c-.44,2.96.63,1.63,2,2,2.62.81,2.62,1.05,0,2-.23.73-.9,1.4-2,2-1.98,7-7.8-.85-2-1,1.56-.41,1.5-3.68,0-4,.11-.03,1.95-.9,2-1Z"/>
  <path class="cls-227" d="M265.01,205c0,1.97.31,4.4-1.99,5-.01-.99-.03-2,0-3,0-.64-.12-1.46,0-2-1.17-.98-.54-2.33,1-2,.16-.16.72.14,1,0,1.91.56,1.91,1.44,0,2Z"/>
  <path class="cls-150" d="M265.01,203c.89-.46,1.29-1.57,3-.99.38,3.34.11,3.25-3,2.99,0-.67,0-1.33,0-2Z"/>
  <path class="cls-113" d="M264.01,203c-.19.18-.93,1.68-1,2-3.35.32-1.34-.52-1-3,.29-.35.76-.63,1-1l1,2Z"/>
  <path class="cls-404" d="M195.01,240c-.14,1.85.19,3.51,1,5-.91.3-2.68,2.84-5,2-.07-.68.84-1.44,1-2,.38-1.38,1.82-2.81,1-5,.42-1.84,1.28-1.74,2,0Z"/>
  <path class="cls-399" d="M201.01,242c1.97-.02,1.44.93,0,2-1.54.55-2.94.63-4,1-.3.1-.7-.1-1,0-1.1-.98-1.45-2.18,0-3h1c1.05,1.38,2.56.33,4,0Z"/>
  <path class="cls-164" d="M198.01,249c1.85-1.6,2.58-.02,2,2,.84.31.84.64,0,1-.78,1.43-2.79,1.89-3,0-.75-.32-1.42-.99-2-2,.95-1.04,1.61-1.39,3-1Z"/>
  <path class="cls-309" d="M198.01,248l3-1c.2.88-.25,2.39,0,3,.75,1.66.56,1.94-1,1-.59-.41-1.55-1.87-2-2v-1Z"/>
  <path class="cls-115" d="M195.01,250c2.12-.24,2.24-.13,2,2,.05,1.56-.18,2.65-2,3-.19-1.38-2.5-2.26,0-5Z"/>
  <path class="cls-352" d="M197.01,255c1.96-.82,2.55.6,1,2-.28.87-.62.86-1,0-.76.57-1.35,1.32-2,2-.12-1.29.18-2.74,0-4,.2-2.03,1.45-1.97,2,0Z"/>
  <path class="cls-267" d="M193.01,251c-2.77.46-2.46-.92-1-3,.34.94,1.01.75,1,3Z"/>
  <path class="cls-205" d="M304.01,245c.06.24,1.23,1.01,2,4-.5.8-.69.6-1,2-.3,1.76-2.66,1.9-3,0-.35.07-.75-.1-1,0-2.61.78-2.99-.17-1-2-.92-.18-.89-.52,0-1-.93-3.05-.26-4.05,2-3,.76-2.61,1.1-2.6,2,0Z"/>
  <path class="cls-412" d="M305.01,237c-1.42,1.07-1.42,6.42-1,8h-2c-1.61-1.48-2.67-4.23-1-6-.94-.22-.91-.56,0-1,.35-2.51.5-3.5,3-2,.2.31.8.57,1,1Z"/>
  <path class="cls-154" d="M205.01,262c1.01,1.14.34,2.59-1,3,1.36,1.3.78,1.61-1,1-.7.35-2.2.18-3,1-2.4-1.12-3.19-2.67-4-3,.3-1,1.25-3.67,2-4-.45-1.52.55-1.52,3,0,.25-1.11.9-1.78,2-2,.99,1.39.97,2.78,2,4Z"/>
  <path class="cls-112" d="M302.01,227c.12.61-.12,1.39,0,2,.53,3.01-1.19,4.62-3,2-.87-.28-.86-.62,0-1-.41-2.13-1.32-7.19,1-8,.28-.87.62-.86,1,0,.3,1.9.65,3.26,1,5Z"/>
  <path class="cls-221" d="M301.01,222h-1c-1.11-.46-2.66-5.48-1-6-.87-.33-.87-.67,0-1,.28-.87.62-.86,1,0-.97,2.35,1.55,4.39,1.76,5.73.12.79-.77,1.2-.76,1.27Z"/>
  <path class="cls-129" d="M302.01,212v3c-.37.19-1.41-.13-2,0h-1c-1.48-.47-1.28-1.19,0-2,0-.33,0-.67,0-1,.66-1.67,2.67-1.89,3,0Z"/>
  <path class="cls-345" d="M211.01,209c-.4.21-2.67,1.72-3,2-2.77.46-2.46-.92-1-3,.77-.64,1.35-2.68,3-3l1,4Z"/>
  <path class="cls-1" d="M220.01,202c.38,3.31-1.07,1.47-2,2-1.09-1.38-3.38-.33-2.99-1.99,1.64.07,3.36-.15,4.99-.01Z"/>
  <path class="cls-245" d="M305.01,251c-.11.51-.03,1.4,0,2l-3,1c.41-1.17,1.1-1.7,0-3,.89-.17,2.04.11,3,0Z"/>
  <path class="cls-179" d="M304.01,258c-.03-1.44.2-2.78,1-4,.03.56,2.7,2.72-1,4Z"/>
  <path class="cls-209" d="M270.01,293c3.75,5.33,2.05,5.1,2,10-.92-.08-1.43.71-2,1-2.02,1.02-1.79,0-2,0,1.92-2.39.58-3.25,0-5-2.64.31-3.05-1.33-1-3-1.19-3.94,1.68-10.39,3-3Z"/>
  <path class="cls-255" d="M265.01,294c1.55-.9,2.34.57,2,2,.67,1.01.66,1.99,1,3-.46,4.85-1.73-.61-5,0-.59,1.88-1.37,1.86-2,0-.69-.32-.69-.66,0-1-.89-.27-.87-.6,0-1-.01-3.41.99-4.74,3-4,1.38-1.36,1.99-.74,1,1Z"/>
  <path class="cls-380" d="M264.01,306c-1.63,1.22-2.78,1.19-3.99-.51l2.99-1.49c.07.34,1.1,1.22,1,2Z"/>
  <path class="cls-402" d="M263.01,299c1.11,1.4-.04,3.24,0,4-.44-.59-1.84-1.5-2-2-.95-.09-.75-1.33,0-2,.64-.08,1.39.11,2,0Z"/>
  <path class="cls-376" d="M299.01,213c0,.67-.02,1.34,0,2,.01.33-.03.67,0,1-.43,1.17-1.77,1.51-4,1-.28,4.44-2.4,3.12-4.69.58-1.23,1.38-2,.53-2.31-2.58-1.26.8-1.75.34-1-1,1.66-.07,3.34.01,5,0,3.19-.02,4.73,2.05,5.64-.99h1.36Z"/>
  <path class="cls-305" d="M285.01,213c.35.32.69.65,1,1,.13.88-.54,1.22-2,1-.83,2.78-5.67,1.72-6-1-.87-.28-.86-.62,0-1,.53-.05.93-.99,1-1,1.73-.3,4.11,1.13,6,1Z"/>
  <path class="cls-211" d="M286.01,214c.33-.03.67.01,1,0,.25.38.81.67,1,1v1c-.42,2.66-1.18,2.52-2,0-2.33.31-2.99-.02-2-1,.32-.98,1.15-.91,2-1Z"/>
  <path class="cls-222" d="M210.01,260c-1,1.98-2.81,2.98-4,5-.02,1.49-1.5,1.36-2,0,.07-.14-.87-1.19,1-3,1.71-1.65,4.02-2.06,5-3v1Z"/>
  <path class="cls-224" d="M206.01,265c-.13.23,1.44,3.65-3,1,.7-.35.59-.24,1-1h2Z"/>
  <path class="cls-28" d="M193.01,237c.35.03.72-.08,1,0,.07.02,0,1.12,1,1,.75.69.8,1.41,0,2-.63-.1-1.46.15-2,0-.14-.04-1.64-.8-2-1,.01-.67-.02-1.33,0-2,.47-1.71,1.27-1.57,2,0Z"/>
  <path class="cls-45" d="M303.01,209c-.13.58.2,1.68,0,2-.04.06-.93.97-1,1-.66.25-2.13-.17-3,0v-2c1.61-.59,2.62-.63,4-1Z"/>
  <path class="cls-397" d="M195.01,264c-.12-.03-.1.41-2,0,1.2-2.33,2.36-3.04,2,0Z"/>
  <path class="cls-180" d="M198.01,257c1.8-.93,3.9,1.24,3,3-.89.15-2.44-.24-3,0l-1-3h1Z"/>
  <path class="cls-219" d="M193.01,237c-.66-.07-1.34.04-2,0,.07-2.17.92-2.65,1-3l1,3Z"/>
  <path class="cls-40" d="M278.01,213v1c-.1.9-.45.85-1,0l-5,1c-1.22,2.6-3.62,1.77-4-1-.07-.65.11-1.38,0-2,3.42.93,6.45,1.3,10,1Z"/>
  <path class="cls-359" d="M36.02,582c-.22-2.44,1.48-1.82,1.68-2.26,3.23-7.17-3.9-.91-5.55-1.87-1.28-2.95-5.54-16.14-4.13-17.87.25-.3,3.16,1.67,3.99-.51.72-1.88-1.98-1.4-2.05-2-.24-2.13,1.87-3.32,2.05-5.02.24-2.28-2.11-5.18-1.52-6.49.72-1.62,4.82-2.68,5.52-1.96.61.63-1.22,13.84-.03,17.38.48,1.42,2.35.27,3.04.61,9.87-1.77,19.56-1.93,29.06-.49,5.93,3.19,11.91,4.68,17.94,4.49.78-1.58.78-2.91,0-4-2.66-.32-2.54-1.24,0-2,.42-.35-1.17-4.35,3.99,0,1.32-7.41,1.96-2.2,2.71-1.99,1,.27,2.24-.08,3.31,0,.36.28-1.79,5.2-.99,5.98.65.64,4.18-1.82,2.98,4.01-2.96,1.05-1.92-3.52-4.48-2.99-3.34.69.56,5.17.54,6.45,0,.52-1.67.51-1.99,1.29-.81,1.93-.69,4.9-2.5,6.37-1.66,1.35-7.27.25-9.57.89-1.09,7.11,7.56-.11,6,5.99-2.32-1.61-6.4.42-7.73,2.33-.59.84-.11,2.5-.27,2.67-.23.24-3.67-1.41-6.04-.62s-2.55,3.01-3.17,3.38c-1.85,1.09-5.45-1.43-4.79,2.24-2.42.08-3.44-.79-5-1l.49-6.99c-2.73-.38-3.65,5.5-5.9,4.95-.9-.22-5.9-4.84-6.29-4.92-1.59-.33-4.17.43-5.16-.15-3.13-1.83,4.51-7.31-6.12-5.89Z"/>
  <path class="cls-387" d="M68.02,524c3.84,1.67,7.84,3.01,12,4,.65.34,1.38.61,2,1l1.52,1.74c-1.13,1.61,1.8,5.05,3.46,6.67,4.95,2.25,7.43,6.07,10.02,10.59.18.53.76,1.1,1,2l-5.99,4c1.11-5.32-2.46-5.39-4.02-7.45-.95-1.26-3.01-5.68-4.27-6.23-1.96-.85-4.99-.44-7.19-2.34-2.38.99-.15,3.72-.52,4-2.41,1.82-8.85-4.14-9.48-4.11-2.34.14-3.71,2.08-6.03,2.23-3.16.19-4.86-2.42-6.93-2.17-.54.07-.4,1.79-1.25,2.02-1.31.35-3.06-.11-4.57.26-1.6.38-4.13,1.9-5.19,1.85-.94-.04.42-2.35-2.04-2.09-.79.08-.04,3.15-3,2-3.57-1.38,2.17-6.98,3.8-7.71,1-.45,2.12.92,3.19-.19,1.31-1.36,1.6-4.22,1.5-6.09.3-.1.7.1,1,0,5.5-2.45,11.5-3.79,18-4,.98.05,2.06-.13,3,0Z"/>
  <path class="cls-301" d="M89.75,554.75c-2.75,2.75-8.48-1.98-11.96-3.03-8.37-2.52-17.54-3.28-26.26-2.7-4.46.29-14.92,5.21-13.57-2.51.34-1.92.91-1.9,2.45-2.61,6.71-3.1,25.33-2.09,32.85-.64,3.75.72,22.28,5.72,16.49,11.49Z"/>
  <path class="cls-130" d="M86.02,560v2c2.93,0,2.8,3.34,0,4-.3.18,1.04,2.99-5.54,2.04-5.33-.78-11.45-5.24-19.08-5.91-7.12-.63-16.41,2.74-21.34,1.35-.59-.17-.84-1.37-1.04-1.48,0-1.53-1.1-3.02-.1-4.54,3.78-5.79,23.99-4.48,30.35-3.21,3.01.6,16.07,6.31,16.75,5.75Z"/>
  <path class="cls-52" d="M97.01,548l-5.47-5.55c-1.86-1.18-5.57-2.83-6.81-4.48-1.89-2.5,1.04-3.93-4.7-1.97l1.99-7c8.36,5.21,11.86,9.82,15,19Z"/>
  <path class="cls-52" d="M65.02,524c-2.28,4.29-9.31,1.55-12.41,2-.73.1-4.16,1.52-5.59,2,3.85-3.47,11.56-4.81,16.54-4.86.82,0,1.31.85,1.46.86Z"/>
  <path class="cls-52" d="M80.02,528c-1.98-.24-4.48.44-6.32-.02-.79-.2-.65-1.88-1.31-2.03-2.85-.65-5.05,3.43-4.37-1.95,5.69.77,7.14,1.5,12,4Z"/>
  <path class="cls-337" d="M235.01,523.5c.89-2.86,7.38-2.89,8.06,3.94,2.04,20.75-1.62,44.9-.09,66.03-.97,5.18-7.97,3.8-7.97,2.03v-72Z"/>
  <path class="cls-178" d="M405,533.5c.92-3.27,7.93-4.45,8.93,2.07,1.39,9.05,1.07,37.41.13,46.99-.81,8.17-9.06,6.29-9.06,2.94v-52Z"/>
  <path class="cls-175" d="M227.01,523v72.5c0,.98-7.08,4.54-7.9-2.08-1.78-14.39-1.61-51.31-.16-65.98.58-5.86,2.59-6.25,8.06-4.44Z"/>
  <path class="cls-17" d="M421,532.5c.77-2.47,8-1.8,8,0v54c0,2.09-8,2.1-8,0v-54Z"/>
  <path class="cls-334" d="M245.01,272c2.91.56,3.62,2.53,1,4,.25,1.37-.09,2.03-1,2-1.94-.3-3.32-.28-3.01,1.99h-.98c-.06-1.99.04-4-.01-5.99.71-1.82,2.83-3.7,3-6,.24-.9.58-.88,1,0,1.57.61,1.46,3.33,0,4Z"/>
  <path class="cls-272" d="M245.01,284c2.63-3.11,3.85-1.72,4.04,1.54.21,3.59-.93,5.08-4.04,4.46-1.09,1.06-1.11,3.46-3,1-1.3-1.22-.66-3.92,1-5,.59-.72,1.44-1.24,2-2Z"/>
  <path class="cls-44" d="M247.01,280c1.72,2.37,1.24,4.17-2,4-.76-.15-2.06.46-2.02-.52.68-1.87,1.42-3.58,2.02-5.48.23-.74,0-1.64,1-2,2.41-1.42,2.2,2.44,1,4Z"/>
  <path class="cls-4" d="M243.01,286l-1,5h-1c-.25-.97.42-1.2-1-2,1.54-3.86,2.76-2.7,3-3Z"/>
  <path class="cls-407" d="M248.01,280c1.95-.14,2.37.5,1,2,2.47.92,3.47,1.92,3,3-.12,1.34-.64,2.16-2,2-.3,1.71.03,3.05,1,4,.28-.87.62-.86,1,0,1.5.45,1.36,2.3,0,3-.02,1.05-.36,1.38-1,1-.65-.36-1.38-.6-2-1-.06-.04.13-1.16-.99-1-.06.66.05,1.34-.01,2h-1c-1.6-.22-1.47-2.54,0-3-.3-1.76.86-2.32-2-2,1.66-1.62,2.98-1.53,3.04-4.48.05-2.63-.97-1.12-3.04-1.52.18-.25,1.96-3.78,2-4,.28-.87.62-.86,1,0Z"/>
  <path class="cls-300" d="M242.01,295c.68.6,2.43-1.7,2,3-.46.13-1.67.72-2,1-1.72-.54-.76-2.86,0-4Z"/>
  <path class="cls-360" d="M246.01,304c-2.04-1.17-.41-4.15,0-6,.33-.01.67,0,1,0l-1,6Z"/>
  <path class="cls-152" d="M247.01,292c.16.92-.1,2.04,0,3-3.06.61-1.88-1.59-1.99-4l1.99,1Z"/>
  <path class="cls-91" d="M241.01,245c.66.32.99,1.32,1,3,3.04.56,2.57,1.53,0,3-.33,2.28-1,2.95-2,2-.98-.15-1.64-1.15-2-3-.27-3.6-.6-7.27-1-11v-1c-.62-1.32.56-2.57,2-2,1.01,2.7,1.67,5.7,2,9Z"/>
  <path class="cls-327" d="M240.01,253c1.55.62,1.57,4.34,0,5l-1,2c-.78,1.67-1.45,2.01-2,1-.05-.25-.79-1.06-1-2,.06-1.06.4-1.73,1-2,.09-.29-.07-.67,0-1,.06-2.13.4-4.13,1-6,1.43.43,1.99,1.54,2,3Z"/>
  <path class="cls-230" d="M238.01,250c-.13,2.96-.44,3.5-1,6v-17c1.72,2.54,1.14,7.68,1,11Z"/>
  <path class="cls-218" d="M235.01,237c.87.28.86.62,0,1,0,.67.01,1.33,0,2-.28.87-.62.86-1,0-1.61-.34-1.94-1.67-1-4-.12-.29-.79-.6-1-1-.87-.28-.86-.62,0-1-1.26-1.48-.67-2.05,1-1-.22-2.4.45-3.4,2-3,0,2.33,0,4.67,0,7Z"/>
  <path class="cls-271" d="M239.01,235v1c-.62.57-1.29,1.66-2,2-.4.19-1.4-.13-2,0v-1c1.92-.74,2.07-3.32,4-4,1.3.84,1.53,1.54,0,2Z"/>
  <path class="cls-207" d="M235.01,240c-.06,2.66.05,5.34-.01,8h-.97c-.03-.72-.34-1.74-1.02-2-.89-.18-.86-.52,0-1,.4-1.7.73-3.36,1-5h1Z"/>
  <path class="cls-20" d="M237.01,257c-.24.74.02,1.67-1,2-.9-4.05-.09-2.86,0-5l1,3Z"/>
  <path class="cls-20" d="M234.01,250c.32-1.17.79-1.17,1.99-1v4c-.11-.6-1.59-2.21-1.99-3Z"/>
  <path class="cls-246" d="M242.01,264c.28-.87.62-.86,1,0,1.22-1.09,1.51-.54,1,1,1.98-.09,2.55,1.92,1,3-.33.02-.68-.05-1,0-.48.08-1.16.97-1.53.96-.52-.02-.4-1.52-.72-1.69-.86-.46-3.47.86-4.75-1.27,0-1.5.26-3.71,0-5l2-1c-.01,2.54.99,3.87,3,4Z"/>
  <path class="cls-202" d="M233.01,245c0,.33,0,.67,0,1-2.29-.85-1.89,2.12-2.48,2.01-.81-.16-2.81-2.35-4.52-2.01.23-1.11,1.09-2.31,2-3,1.02.41,2.01.08,3-1,.82-.62,1.48.38,2,3Z"/>
  <path class="cls-171" d="M255.01,294c.67.21.63.56,0,1,.74.66.72,1.37,0,2-.34,1.72-.67,3.39-1,5-.3.13-.9-.15-1,0-1.37-1.51-1.49-5.74-1-8-.08-.98.01-2.01,0-3-.74-.2-.7-.54,0-1,.63-1.77,1.3-2.11,2-1,2.34.16,2.8,1.04.49,1.63l.51,3.37Z"/>
  <path class="cls-278" d="M253.01,302c-.19.3.16,1.41,0,2-2.67-.79-1.86-3.82-1.99-6-.06-.93-.11-2.11,0-3,.05-.46.54-.88,1-1,.18,2.13,1.88,5.2,1,8Z"/>
  <path class="cls-328" d="M257.01,298c.41.33.41.99,0,2-.02.12-.96.64-1,2h-1c-.99-.99-.63-3.54,0-5,0-.67-.02-1.33,0-2,.28-.87.62-.86,1,0,.33.9.67,1.9,1,3Z"/>
  <path class="cls-192" d="M255.01,302c-.3.09-.72-.12-1,0,.06-1.6-.62-4.15,1-5v5Z"/>
  <path class="cls-165" d="M253.01,284c2.19-4.02,6.1,1.13,4,4,3.31.16,4.37,5.97,4,9,.09.31-.09.7,0,1-.28.87-.62.86-1,0l-2-1c-.23-1.11-.56-.78-1,1-1.3-.48-.96-1.9-1-3-.57-1.89-.91-2.22-1-1-1.75-.86-.76-3.49-1-5-.9-.2-1.23-1.2-1-3-.83-1.13-.83-1.79,0-2Z"/>
  <path class="cls-99" d="M258.01,297c-.22,1.76-.95,2.69-1,3-.09-.64.06-1.35,0-2-.23-2.62.16-5.36.01-8h.98c-.17,2.25.28,4.81.01,7Z"/>
  <path class="cls-374" d="M261.01,299c.19.49-.17,1.44,0,2-.38,4.63-1.48.33-1-3h1c.1.32-.11.72,0,1Z"/>
  <path class="cls-303" d="M210.01,244c1.43.43,1.99,1.54,2,3-.13.05-1.33,1.42-2,2h-1l-2.01-3.48c.24-1.15,2.89-1.36,3.01-1.52Z"/>
  <path class="cls-304" d="M200.01,254c1.73-.56,1.45.54,1,2,.71,1.21,1.67,1.54,2,2,.32,2.85-.23,1.71-2,2-1.13-.87-2.17-1.83-3-3-.41-.59-.63-1.37-1-2-1.41-2.06,1.98-2.92,3-1Z"/>
  <path class="cls-297" d="M205.01,236c1.77.81.93,3.65,0,5,.07.35-.11.93,0,1-1.36.54-2.63,1.51-4,2,.13-.6-.19-1.61,0-2,.36-.75,2.31-1.29,2.82-2.66,1.63-4.41-1.42-3.34-4.82-3.34,1.06-2.61,5.77.22,6,0Z"/>
  <path class="cls-239" d="M201.01,256c-.44-.75-.74-.76-1-2-2.01-.5-2-1.42,0-2,.03-.35-.08-.74,0-1s.8-.61,1-1c.97,2.34,2.96,2.1,0,6Z"/>
  <path class="cls-364" d="M205.01,223c.48.32,4.77,1.79,5,2,.16.14-.15,3.37,1.5,3.98.65-.9,1.67-1.33,2.5-1.98.87-.44,1.17-.06,1,1,.39.44.38.56,1,1,1.75.64.73,2.93-1,3-1.93-.94-4.38-.55-6-1-.07-.02-.26-.8-1-1l-3-7Z"/>
  <path class="cls-88" d="M205.01,236c.21-.2-.24-1.78,0-1.99,2.11-1.79,2.32,2.14,2,3.99-.26.5-.71.9-.73,1.52l.73.48c-.46.13-1.2,1.04-2,1-.28-1.45.2-3.44,0-5Z"/>
  <path class="cls-197" d="M218.01,230c.94.2.91.54,0,1-.21.59-1.5,1.42-2,2-.4-.27-.73-.87-1-1l1-3c.22.16.83-.17,1,0,1.41-1.38,1.98-.78,1,1Z"/>
  <path class="cls-46" d="M228.01,228c.87-.43,1.17-.05,1,1,1.23.08,1.89.42,2,1,3.2-.98,3.87.02,2,3-.26.24-.93.99-1,1-1.67.97-2.89,1.89-4,4-2.41,2.21-3.16,4.09-6,5-.75-5.98-4.36.22-4.99-3.49,1.75-1.11,4.16-2.76,5.99-3.51.66-1.19,1.3-1.09,2,0-.15-2.95.51-4.28,2-4-1.11-.7-1.23-1.77-1-3-.87-.28-.86-.62,0-1,.48-1.46,1.1-1.15,2,0Z"/>
  <path class="cls-96" d="M226.01,228v1c.99,1.75-.27,2.41-2,2,1.67,1.43,2,3.1,1,5-1.53,1.59-1.68-.13-2,0-.46-.72-1.79-3.93-2-4-1.45-1.91-.47-4.21,2-4,.15-.31.77-.62,1-1,.91-1.37,2.33-.59,2,1Z"/>
  <path class="cls-10" d="M223.01,228c-.61,1.29-.78,2.87-2,4-.73-.25-3.65,2.98-3-1,.07-.2.05-.79,0-1-.4-1.22.27-2.22,2-3,.1-.03.2-.66.53-.64.75.06,1.68,1.27,2.47,1.64Z"/>
  <path class="cls-332" d="M231.01,239c1.51-1.27,1.91-.97,2,1,.96.94.74,3.62,0,5-1.43-.2-.99-1.98-2-3-.86-.87-1.83-1.06-3-1.01,0-1.81,2.51-1.59,3-1.99Z"/>
  <path class="cls-291" d="M234.01,240c-.25.88-.58.86-1,0-.82-.13-1.67.02-2-1,.67-.55,1.28-2.25,2-3,.78,1.88.91,1.58,1,4Z"/>
  <path class="cls-140" d="M231.01,242c1.3,1.22-3.65,5.65-3,1,.55-.41,1.92-2.01,3-1Z"/>
  <path class="cls-228" d="M232.01,234v1c-1.26.98-2.84,1.94-4,3,1.57-6.2,2.33-3.73,4-4Z"/>
  <path class="cls-270" d="M296.01,277h1c-.16.51.11,1.38,0,2h-4s1-2,1-2c.65-.08,1.34.05,2,0Z"/>
  <path class="cls-8" d="M294.01,270v4c-.66-.04-1.36.08-2,0-.17-1.74.16-3.48,2-4Z"/>
  <path class="cls-367" d="M297.01,269l.99,4c-2.7-.99-1.44-1.58-.99-3,.11-.34-.14-.81,0-1Z"/>
  <path class="cls-15" d="M292.01,265c-.18.44.12,1.39,0,2-.81-.09-2.55,1.18-2.89.85-.36-.35.07-1.63-.11-1.85v-1c.93.15,2.03-.1,3,0Z"/>
  <path class="cls-318" d="M252.01,264c1.09.63,1.42,2.63,1,6,.63-1.25,1.29-2.25,2-3-.87-.28-.86-.62,0-1,2.35-.74,2.68.6,1,4,.21,2.17,0,4.75,0,7-1.15,1.49-2.48,2.83-4,4-1.44-.8-2.77-1.13-4-1h-1c.47-2.37-.84-3.09-1-4-.27-1.56-.74-2.75-1-4,.56-2.63,1.2-2.52,2,0,.59-8.07,2.25-10.74,5-8Z"/>
  <path class="cls-69" d="M255.01,256c3.05.92,4.71,2.26,5,4,.87.28.86.62,0,1,1.24,1.28,1.24,3.28,0,6-3.21-.71-2.74.78-4,3-.18-1.86-.99-3.79-1-4-2.28-.47-2.31-6.52,0-7-.6-.92-.69-2.22,0-3Z"/>
  <path class="cls-106" d="M263.01,264q-1.27,1.36,0,0c2.79-1.29,6.34,2.77,4,5,.2.33-.13,1.42,0,2-3.66-.09-1.21,2.77-3,3-.59-1.42-1.26-2.75-2-4-.97.11-2.02-.06-3,0-.38-1.17.93-2.36,1-2.99.22-1.92-.15-4.04,0-6,2.57-1.08,6.31.44,3,3Z"/>
  <path class="cls-134" d="M256.01,277v3c.25,2.36-.78,3.2-3,2-.33.87-.66.87-1,0-.87-.28-.86-.62,0-1-.73-3.42,1.13-3.43,4-4Z"/>
  <path class="cls-56" d="M264.01,274c-1.47.19-2.3-2.65-2-4,.53-.06,1.74-1.4,1.99-1v5Z"/>
  <path class="cls-341" d="M270.01,293c-.43-.62-1.08-1.19-1.01-1.99h-.98s-.2,4.32-.2,4.32l-.81.67c-.1-.15-.54,1.02-2-2-.31-1.47-.26-4.06,1-5-.84-2.44-.51-3.44,1-3,.11-.44.57-.83,1-1,.05.12,1.45.46,1.8,1.67.58,1.97.1,4.29.2,6.33Z"/>
  <path class="cls-214" d="M273.01,288v3c-2.24-1.72-3.77-2.85,0-3Z"/>
  <path class="cls-349" d="M271.01,252c1.07-5.38,4.63,3.13,1,2-.6,1.33-.62,2.69,0,4-1.67,3.14-1.34,5.04-2,8-.11.49.28,1.18-.18,1.82-.38.52-2.12.7-2.82,1.18-1.29-2.13-3.14-3.93-4-5-.62-.77-.14-3.45-3-3v-1c.25-.86.59-.84,1,0,1.45-.47,3.11-.8,5-1,2.77.42-.41-2.42-2-3-1.42-.84-.75-1.51,2-2,.56-4.15,2.24-5.93,5-2Z"/>
  <path class="cls-54" d="M249.01,226c2,1.73-.34,1.11-.25,1.02,1.64-1.65,4.72,1.83,2.25,2.98,1.02,6.02-4.26,9.41-6.14,4.3l-1.86.7c-.25.9-.59.88-1,0-1.38,1.06-1.83.55-1-1,.48-1.68,1.14-3.34,2-5,.14-.16-.46-1.29.63-2.11.58-.44,4.09-.58,5.37-.89Z"/>
  <path class="cls-290" d="M257.01,216c.6.13.97.46.84,1.02-.18.77-.43,1.65-.71,2.38-.06.16.49-3.17,1.87-2.4.28-.87.62-.86,1,0,3.94.49,2.39,7.35-1,7l-2.11,1.16c.23-1.63-.74-2.68-2.89-3.16-.48-.14-.81-.8-1-2,.06-.51.81-1.73,1-3,.12-.94.46-1.27,1-1,.5-2.01,1.42-2,2,0Z"/>
  <path class="cls-228" d="M237.01,223c-.66,2.1-.95,4.84-2,7-.39.81-1.39,2.44-2,3,.42-1.83-.83-2.09-2-3l.37-1.72c-.74-2.99.13-4.42,2.63-4.28-1.37-1.44-.74-2.05,1-1,.02-2.04,1.63-2.01,2,0Z"/>
  <path class="cls-190" d="M261.01,213c2.86-.1,1.1,4.21-1,4h-1c-1.97,1.51-2.05,1.48-2-1-.59-.04-1.5-.11-2,0-.68.34-1.02-.33-1-2,.07-.32-.05-.68,0-1,2.33.05,4.67-.07,7,0Z"/>
  <path class="cls-6" d="M251.01,225c.61,2.84-.06,3.1-2,1-.1-1.27-3.77-1.56-3-3.99,4.43.24,5.57-3.29,5,2.99Z"/>
  <path class="cls-101" d="M252.01,226c3.17,2.34,3.51,4.01,1,5-1.87,2.54-2.84,2.03-2-1-.15-.27.38-1.42-.17-1.84-.7-.54-2.43.08-2.84-.16s1.03-1.69,1.01-1.99c.76-.18,1.44-.43,2-1h1c.89.19.85.52,0,1Z"/>
  <path class="cls-339" d="M254.01,223c4.96-1.3,6.51,5.98,0,4-.67,1.02-1.33.68-2-1,0-.33,0-.67,0-1,0-.11.86-.8,1-2,.28-.87.62-.86,1,0Z"/>
  <path class="cls-86" d="M241.01,234c-1.2,1.04-1.65.45-1-1,.28-2.09,1.93-2.75,3-4,2.63,1.08-1.36,3.4-2,5Z"/>
  <path class="cls-257" d="M238.01,220c-.26.67-.8,1.34-1,2-.09.31.1.7,0,1-.6.13-1.6-.19-2,0-.9.24-1.24-.1-1-1,.52-1.84,2.26-2.17,4-2Z"/>
  <path class="cls-123" d="M254.01,222c.87.34.87.67,0,1h-1c.02-.18-.21-1.16,0-3,1.16.27.73,1.52,1,2Z"/>
  <path class="cls-133" d="M241.01,234c.27.13.18,1.25,1,1,1.53,1.12.85,2.59-1,2-.71,1.51-1.37.84-2-2,0-.67,0-1.33,0-2,.18-.06.81-.06,1,0,.21.06.56.79,1,1Z"/>
  <path class="cls-158" d="M255.01,216c-.07.01-.01,1.21-1,1,.03-.17-.57-.36,0-3l1,2Z"/>
  <path class="cls-287" d="M264.01,215c-.01.11-1.67,1.45-1,1.99.72.58,2.44-.9,3-.99.64,1.22,1.3,2.22,2,3,.33-3,2.4-3.6,4-1,2.86.08,3.57,2.56,1,4,1.24.71-.04,2.17-1,3-1.54,1.48-2.53,1.14-2-1-1.75-.74-3.08-.07-4,2-.23.78-.89,1.45-2,2-.69,2.44-1.19,3.36-3,1-1.73-.53-2.39-2.2-2-5,2.36-2.61.89-5.34,1-7,.06-.87,1.38-2.62,1-4,.59.02,3.39-2.07,3,2Z"/>
  <path class="cls-75" d="M238.01,215c.42,4.14-6.09,2.98-7,6,2.07,2.8.85,6.92-2,3-1.39,1.33-3.89-.08-4-2-1.48,1.62-3.27-.11-2-2-1.53-1,.75-3.27,2-2,1.91-.46,5.27.99,5.08-3.44-.04-.87-2.41-.21-2.08-1.05,1.09-2.81,7.56,1.02,10,1.49Z"/>
  <path class="cls-294" d="M225.01,218c-.98.23-1.66,1.08-2,2-.34,2.2-1.41,2.16-2,0,.79-2.73,1.64-2,3-4l1,2Z"/>
  <path class="cls-68" d="M234.01,224c-3.68,3.76.77,6.48-3,6-.33-.25-1.19-.21-2-1-.05-1.68-.05-3.35,0-5,3.3.59,1.49-1.31,2-3h1c1.05.92,1.72,1.92,2,3Z"/>
  <path class="cls-415" d="M234.01,222c.39.25.69.66,1,1-.14.07-.73.72-1,1-1.43-.43-1.99-1.54-2-3,.64.37,1.38.6,2,1Z"/>
  <path class="cls-73" d="M296.01,254c1.15-1.14,2.42-.65,2,1-.23.72.14,2.08,0,3-5.68-.59-5.29,5.72-12,4-2.77-.12-2.43-1.79,1-5,.5-2.59,1.05-2.78,3-1,.47-3.39,1.47-4.72,3-4,2.55-1.41,2.98-.76,3,2Z"/>
  <path class="cls-187" d="M286.01,256c1.35-1.34,1.93-.74,1,1,.39,1.27,1.45,2.34.99,4.01-1.78-.98-2.26-1.36-1.99.99l-2.99,1.99c-.68-2.04-.93-3.83-1.01-5.99.58-2.38,2.25-4.53,4-2Z"/>
  <path class="cls-49" d="M280.01,256c.14-1.69,1.83-1.93,2,0,1.53.03,1.53.7,0,2-1.79,1.76-.87,3.66-1,6l-1.01-5h-6.99c.36-.75,3.19-2.77,4-3,1,.59,2,.58,3,0Z"/>
  <path class="cls-95" d="M272.01,254c1.28-.39,2.46.66,2,2-.36.35-1.93,1.88-2,2-4.07-.31-3.96-3.74,0-4Z"/>
  <path class="cls-85" d="M207.01,218c1.42-1.76,2.42-1.76,3,0,.33-.86.67-.86,1,0,1.81-1.38,2.39-.81,1,1,1.08,1.29.75,2.02-1,2,1.25.94,1.19,1.99,0,3-3.8.91-4.35-4.43-7.99-5.01-.23-1.72,2.86-.99,3.99-.99Z"/>
  <path class="cls-400" d="M210.01,218c-.18-.02-2.55,0-3,0,.86-.44.71-1.47,1-2,.2-.36.77-.64,1-1,2.54-.95,2.37,1.31,1,3Z"/>
  <path class="cls-84" d="M303.01,233c.48,2.18-.53,2.69-2,1-2.46,1.25-3.46.92-3-1-.28.87-.62.86-1,0-1.68-1.6-1.02-2.27,2-2,.42-.31,2.57-.09,3-2,.08.39.93,3.78,1,4Z"/>
  <path class="cls-92" d="M304.01,236c-.55.61-2.82,1.67-3,2l-2-1c-1.89-.34-.61-4.12,2-3,.68-.3,1.33-.68,2-1,.32,1.08.29,1.89,1,3Z"/>
  <path class="cls-245" d="M301.01,251c-1.28.53-.73,1.65-1,2-1.55,1.16-3.59.93-4-1-1.02-.94-.36-1.6,2-2-.4-1.45.83-1.66,2-1,.04.54.79,1.38,1,2Z"/>
  <path class="cls-405" d="M300.01,253c-.76.98-1.96,1.87-2,2-.68-.3-1.36-.62-2-1-1.35-1.32-1.35-1.98,0-2l4,1Z"/>
  <path class="cls-64" d="M214.01,212c1.46-1.3,2.01-.72,1,1,.53.43,1.26.71,1.62,1.34,3.03,5.29.24,2.97-1.62,3.66-.46-1.22-1.79-1.22-4,0-.33-.02-.67.03-1,0l-1-3c.27-.43-.12-1.81.96-2.53,1.37-.91,3.27-.17,4.03-.47Z"/>
  <path class="cls-194" d="M223.01,220c.62.32,1.3,1.6,2,2,2.22,1.27,2.71,2.25,0,3-1.3.79-2.64.13-4-2-.18-.53-.72-1.01-.76-1.71-.05-.83.7-1.09.76-1.29.59.13,1.62-.19,2,0Z"/>
  <path class="cls-82" d="M221.01,223c1.68.22,2.14,1.13,4,2,1.61-2.37,5.2.97,3,3-.64-.09-1.42.13-2,0-.48-.11-1.51-.69-2-1-2.33-1.49-2.15-1.49-3-4Z"/>
  <path class="cls-317" d="M211.01,218l2.5-5.01c1.41,2.3,3.18,1.93,1.5,5.01-.07.02-.97.93-1,1,.2,2-1.42,1.9-2,0-.07-.03.23-.94-1-1Z"/>
  <path class="cls-251" d="M214.01,219c-.24.62.15,2.1,0,3-.66,1.6-3.42,1.04-3-1,.21-.74-.09-1.62,1-2,.45.18,1.39-.12,2,0Z"/>
  <path class="cls-400" d="M214.01,222c-.55,3.27-.4,1.28-2,2h-1c-1.62-1.7-.21-2.27,0-3l3,1Z"/>
  <path class="cls-212" d="M220.01,227l-2,3c-.02-.07-.74-.75-1-1,.6-1.66,1.62-1.61,3-2Z"/>
  <path class="cls-350" d="M214.01,212c.26-.1.79-1.75,1.5-1.99,2.39-.83,1.91,2.26-.5,2.99-.36-.29-.64-.71-1-1Z"/>
  <path class="cls-189" d="M214.01,227c.43-.34.71-1.65,1.51-1.99,2.39-.82,1.9,2.26-.51,2.99-.31-.35-.66-.67-1-1Z"/>
  <path class="cls-213" d="M196.01,242c-.07.99.04,2.01,0,3-3.26-1.25-1.55-2.97-1-5,.15-.54-.1-1.37,0-2h1c.04,1.31.09,2.7,0,4Z"/>
  <path class="cls-262" d="M268.01,214c1.16.09,2.78.67,4,1,2.1.91,2.45,2.24,0,3-1.31.37-2.72.55-4,1-.82-1.02-1.49-2.02-2-3,.08-.65-.08-1.34,0-2,.66,0,1.34-.05,2,0Z"/>
  <path class="cls-151" d="M197.01,252c.99-.06,2,.04,3,0-.04.59-.11,1.49,0,2-1.25-.51-2.52.91-3,1s-1.94.08-2,0c-.22-.28.13-2.18,0-3,.66-.06,1.33.03,2,0Z"/>
  <path class="cls-147" d="M297.01,239c.52,0,1.18.34,2,1,.37-1.85.56-2.39,2-1,.91,2.35,2.22,1.73,1,6-.24.86-1.83,2.28-2,3-4.37-.74-6.04-2.07-5-4-.87-.28-.86-.62,0-1,.56-1.08,1.22-2.08,2-3-.86-.24-.84-.58,0-1Z"/>
  <path class="cls-319" d="M300.01,248c-.06.27-.02.71,0,1-.61.38-1.46.58-2,1-2.16,1.5-3.16,1.5-3,0-1.7,1.1-3.03,1.1-4,0-2.06,0-2.04-1.61,0-2,.28-.87.62-.86,1,0,2.49-2.07,5.18-1.42,8,0Z"/>
  <path class="cls-104" d="M301.01,238c-.07.12-.06.86,0,1-.69.29-1.32.7-2,1-1.46-.95-1.46-2.05,0-3,2.04-1.28,2.17-1.67,2,1Z"/>
  <path class="cls-321" d="M296.01,228c1.72-.95,1.62,1.39,1.01,3-.03.08.2-1.35.99-1,.28-.87.62-.86,1,0v1c-.72.53-1.28,1.46-2,2,.96,1.22.46,1.78-1,1,.29,2.68-.13,2.56-2,1-2.15,1.67-4.13-1.84-4-4-1.09-3.3,3.7-5.07,6-3Z"/>
  <path class="cls-314" d="M299.01,216c.16,2.04.98,5.02,1,6,.04,2.83-1.09,5.22-1,8h-1c-1.07-.89-1.41-2.26,0-3-.83-.41-1.17-1.41-1-3-.91-.73-.91-2.09-.01-4.07l-1.99-2.93c.34-.12,1.82-1.85,4-1Z"/>
  <path class="cls-142" d="M261.01,282c.86.33.86.67,0,1-.3,1.39,1.03,5.44,2,6,2.12-.78,2.98,3.14,1,4-1.97,1.96.35,4.26-3,4-.03-.12-1.52-.49-1.81-1.65-1.09-4.32.23-3.08-2.19-7.35-.7-3.21.58-9.09,4-6Z"/>
  <path class="cls-100" d="M266.01,289c-.09.5,2.12,3.52-1,5-.16-.34-.89-.66-1-1s-.98-3.8-1-4c-2.24-1.05-1.76-3.83,1-3,1.88-.99,2.35,1.21,2,3Z"/>
  <path class="cls-22" d="M288.01,215c.55.98,1.19,1.77,1.01,2.99l2.5-2.99.49,2.99c1.22.25,2.06-.66,3-.99,5.85,3.73-4.27,15.73-4,6-1.48-.31-1.41-1.55,0-2-5.68-1.79-6.68-3.46-3-5v-1Z"/>
  <path class="cls-375" d="M284.01,215c.92.26,1.35.7,2,1,.12,1.31-.55,2.31-2,3,2.43,6.14-1.44,5.27-4,1-2.19,1.15-7.36-1.65-7-5,1.2-.5,2.53-.83,4-1,.32-.04.67,0,1,0,1.42-.01,4.57.59,6,1Z"/>
  <path class="cls-315" d="M286.01,216c.47.22,1.84-.22,2,0,.25.36-.18,2.19,0,3l2.98-1c.02,1,.01,2,0,3-.39.95-1.06,1.62-2,2-.27.83-.6.81-1,0-1.07-.4-2.07-1.4-3-3-.46.38-.79.05-1-1,.23-2.23-.97-3.47,2-3Z"/>
  <path class="cls-305" d="M277.01,214c-.6.07-2.41,1.81-4,1-.26.86-.59.84-1,0,.71-1.78,3.33-.85,5-1Z"/>
  <path class="cls-130" d="M81.02,576c-.14.34.26,1.22-.22,1.74-2.86,3.1-9.99-2.65-13.51-3.51-5.76-1.41-13.85-1.21-19.69-.16-2.87.52-5.15,4.6-7.11-1.03-1.84-5.28,1.09-6.41,6.01-7.08,9.98-1.36,24.21-.24,33.19,4.41,2.99,1.55,2.35,3.18,1.34,5.62q-2.71-1.28,0,0Z"/>
  <path class="cls-52" d="M86.02,562h4c1.09,6.5-2.3,2.97-4,4v-4Z"/>
  <path class="cls-174" d="M84.82,562.17c.97,1.7.11,4.83-2.26,4.84-2.01.01-12.26-5.33-17.16-5.9-4.38-.51-10.42-.3-14.93-.15-2.58.09-10.51,3.11-10.5-1.48.02-5.2,19.65-4.82,23.52-4.47,3.54.32,19.9,4.67,21.32,7.15Z"/>
  <path class="cls-188" d="M247.01,268c1.37.15.49,2.68,0,4-.39.19-1.41-.13-2,0-.24-1.17.21-2.78,0-4,.23-2.03,1.23-1.94,2,0Z"/>
  <path class="cls-409" d="M248.01,280c.04-.93,1.33-5.56,1.73-6.82.54-1.69-.43-2.63,2.27-2.17.75,3.44-2.5,7.23,0,10v1c.79,2.86-1.59,1.99-3,0-.22-.5-1.05-.87-1-2Z"/>
  <path class="cls-117" d="M252.01,285c.47-.65.81-.31,1,1,.47,1.56.3,2.98-1,4,0,.33,0,.67,0,1h-1c-1.12-.18-1.45-1.52-1-4,.38-1.13-.89-2.5,2-2Z"/>
  <path class="cls-318" d="M252.01,282c.3-.11.72.11,1,0,1.9.3,1.8,1.09,0,2-.03.65.1,1.39,0,2-.21-.3-.68-.67-1-1-1.46-1.52-1.62.17-3-3,1.74,1.56,2.1.33,3,0Z"/>
  <path class="cls-102" d="M251.01,291c-2.55,2.02-1.82-1.57-1-4l1,4Z"/>
  <path class="cls-86" d="M253.01,231c1.92,1,.79,1.41-1,2-.12,1.95.21,3.28,1,4,1.02,3.43,1.03,7.98-4,7-1.34,2.16-2.01,4.82-2,8,.51.47.18.81-1,1-.28.87-.62.86-1,0-.72.03-1.38-.63-2-2-.26.9-.59.88-1,0-.07-.97.16-2.13,0-3-.47-1.66-.96-4.19,1-4,1.09-.79,1.42-2.79,1-6-1.92-.08-1.95-1.66-1-3,.21-.28-.54-1.65.62-1.96,3.18-.85,3.61,1.99,3.86,1.98,2.89-.21,2.16-3.45,3.52-5.01.54.95.86,1.17,2,1Z"/>
  <path class="cls-366" d="M244.01,238c.31,2.79-.03,4.79-1,6-.1.69-1.78,2.39-1,4-.06-.33-.74-2.13-1-3-1.22-3.44-1.22-6.11,0-8,.05-.53.81-1.37,1-2,.33-.07.91.12,1,0,1.32.7.76,2.04,1,3Z"/>
  <path class="cls-414" d="M241.01,237c-.26,2.62.18,5.37,0,8-1.03-3.51-2.05-3.05-2-9,0-.33,0-.67,0-1l2,2Z"/>
  <path class="cls-170" d="M242.01,262c-.28.87-.62.86-1,0-.29-1.23-.63-2.56-1-4,0-1.38-.29-3.95,0-5,.04-.14,1.61-1.68,2-2,1.09,3.33.64,7.53,0,11Z"/>
  <path class="cls-377" d="M240.01,258c.19,2.85.53,4.18,1,4h1c.74.34.67,1.52,0,2-4.2,3.97-4.38.25-3-4,.24-.73-.52-2.06,1-2Z"/>
  <path class="cls-50" d="M233.01,245v-5c.32.05.67-.04,1,0,.06,1.6.54,4.99-1,5Z"/>
  <path class="cls-90" d="M245.01,253c1.73.43,1.49,3.96,0,5,.78,1.92.83,4.08,0,6,1.21,1.33.6,1.86-1,1,0-.07-.91-.3-1-1-1.09-3.93-.54-8.95,0-13,.11-.06.1-1.23.99-1-.2,1.11.89,2.2,1.01,3Z"/>
  <path class="cls-264" d="M243.01,264h-1v-2c0-3.59.25-7.46,0-11,.19-.16.73.14,1,0,.37,4.14-.52,8.99,0,13Z"/>
  <path class="cls-7" d="M246.01,264c.28-.87.62-.86,1,0,1.96.5,1.3,2.79,0,4-.66.03-1.34-.04-2,0-.14-.81-.83-1.81-1-3,.17-.46.52-.86,1-1,.26-.9.6-.88,1,0Z"/>
  <path class="cls-250" d="M254.01,289l-2,1c0-1.86.81-2.82,1-4,1.06,1.56.74,1.35,1,3Z"/>
  <path class="cls-16" d="M256.01,295h-1c0-.33-.01-.67,0-1,.05-1.33-.05-2.67.01-3.99h.98c.07,1.66-.05,3.34.01,4.99Z"/>
  <path class="cls-173" d="M256.01,280c.87.52.81,2.12,1.5,2.01.65-.1.1-3.21,3.5-2.01.61,1.02.61,1.69,0,2-3.93-.92-.2,4.79-4,6-.88-1.56-1.55-4.29-4-4,.03-.66-.02-1.33,0-2,.17-.07,1.98-2.6,3-2Z"/>
  <path class="cls-120" d="M229.01,224c1.83,1.95,3.65,5.71,0,5-.34-.33-.66-.67-1-1-1.38-1.33.6-1.32-3-3v-3c1.23.71,2.21.1,4,2Z"/>
  <path class="cls-394" d="M227.01,232c-.52,1.44-.9,2.85-2,4,.87-4.24-3.13-1.74-1-5,1.17-1.31,3.18-.84,3,1Z"/>
  <path class="cls-228" d="M226.01,229c3.39,1.77,1.46,1.74,1,3l-3-1c.56-.86.94-1.64,2-2Z"/>
  <path class="cls-59" d="M250.01,253c.68,1.21.91,3,0,4-.1,1.95.23,2.95,1,3,.28-.87.62-.86,1,0,2.05,1.01,2.03,3.02,0,4-4.42-.43-2.86,6.94-5,8v-4c0-1.33-.06-2.68,0-4-.77-1.21-.79-3.85,0-5l1-6c.2-.9.54-.86,1,0,.26-.87.59-.85,1,0Z"/>
  <path class="cls-210" d="M255.01,259c.1,2.32-.17,4.2,0,7v1c-.48,1.04-1.15,2.04-2,3-1.62-1.84-1.03-3.66-1-6,.01-1.3-.14-2.75,0-4,.06-2.06-.03-4.31-.26-6.74,2.1-1.06,3.19.85,3.26,5.74Z"/>
  <path class="cls-51" d="M255.01,267v4c-.09.12-1.86-.84-2-1-.04-2.37-.67-3.47,2-3Z"/>
  <path class="cls-200" d="M254.01,222c2.63-.41,2.58,1.03,5,2,.43.17,1.84-.23,2,0,.15.2.1,4.11,0,5.01.97,2.05,1.97,2.72,3,2,.84.86,1.51,2.19,2,4,1.67.81,1.01,3.18-1,3-1.7,2.08-4.03,1.83-6.97-.74l-2.03.74c2.68,1.43,2.84,8.7,0,10l1.92,1.21c2.59-1.61,4.83-2.95,4.08.79,2.01.24,1.92,1.23,0,2,1.45.39,2.78,1.05,4,2-.69.65-1.43,1.24-2,2,.87.28.86.62,0,1,1.99,1.7.99,2.7-3,3-.34-.06-.72.09-1,0-2.33-.71-3.31-2.21-5-4-2.47-7.5-2.01-15.25-1-23,2.1-2.9,2.26-4.12.48-3.63l-.48-2.37c.85-.1,1.75.49,2.01-.55,1.14-4.55-1.21-2.98-2.01-3.45-.16-.09.15-.74,0-1Z"/>
  <path class="cls-371" d="M255.01,256c.05,1-.04,2,0,3l-.81-.67-.2-4.33h-.98c1,2.23-.88,4.81-1.01,6h-1c-1.55-.55-1.1-1.91,0-3-.31-1.25-.64-2.58-1-4-.21-2.5-.54-4.83-1-7-1.63-.24-1.42-1.13,0-2-.04-.64-1.73-3.12-1-3.99,1.77-2.09,2.22,4.09,3.99,2,.16-.19.87-4.14,1.01-5-1.69-.7-1.09-2.73,0-4,.25-.88.58-.86,1,0,.33,7.68.65,15.34,1,23Z"/>
  <path class="cls-273" d="M263.01,264c.17.45.33,3.69-.5,3.99-1.69-1.19-1.61-3.1-1.49-4.99.06-.09,1.95.9,1.99,1Z"/>
  <path class="cls-74" d="M266.01,283c.31.65-.42,2.48,1,3-.27,1.09-.97,2.84-1,3-.22-1.33-1.43-2.09-2-3-3.19,1.02-2.5-.58-1-3,.35-1.08,1.95-.47,3,0Z"/>
  <path class="cls-406" d="M261.01,280c.27.1.65,1.31,1.31,1.64,1.14.57,3.05,0,3.69,1.36-.84.18-2.43-.26-3,0-.27,4.79-3.27,4.29-2,0,.05-.33-.06-.68,0-1,.11-.62-.07-1.36,0-2Z"/>
  <path class="cls-157" d="M270.01,244c1.74-1.15,5.18-1.39,7,0-.2.64-.93,1.45-1,2,1.61.49,1.17,2.77,0,4-.47,1.16-.81,2.5-1,4-.23.09-.56,1.58-1,2-.81-.27-2.05-1.15-2-2,.01-.17,1.58-1.22.9-1.82-.53-.47-1.76-.03-1.9-.18-3.42.08-5.27-5.78-3-8,.67-1.35,1.38-1.43,2,0Z"/>
  <path class="cls-111" d="M268.01,244c.17.88,2.71,7.69,3,8-3.51-.75-3.32.41-5,2-2.31-.35-2.9-1.96-.68-2.98-2.37-3.98-2.15-6.32.68-7.02-1.89-2.22-.45-3.42,2-2,1.51.1,1.42,1.59,0,2Z"/>
  <path class="cls-342" d="M264.01,256c4.45-.72,5.71,4.13,2.01,6-.18-.91.23-2.29,0-3-2.43,1.11-2.43.19-2-2v-1Z"/>
  <path class="cls-69" d="M266.01,259c-1.1,2.71-2.28,1.49-5,1-.71-4.41,3.58,1.2,3-3,.47-.45,1.73,1.22,2,2Z"/>
  <path class="cls-57" d="M259.01,217c-1.03,1.88-.42,3.64-2.99,2.99l.99-3.99c.77.06,1.46.46,2,1Z"/>
  <path class="cls-378" d="M254.01,227c3.94,1.89,4.64-.13,3.99,6-2.04-1.2-3.02-.13-3.99,0-.33.04-.67-.03-1,0-.28.87-.62.86-1,0,.17-.62.95-1.43,1-2,.15-1.8-1.01-3.59-1-5,.68.31,1.33.68,2,1Z"/>
  <path class="cls-243" d="M273.01,215c2.08.75,4.89,3.62,7,5,1.36,1.17,1.98,1.71,0,2,.09,2.49-1.25,2.49-4,0-.29.85-.62.84-1,0-.95,1.21-1.47,1.59-2,0,.05-.56-.97-3.13-1-4-.03-.77-.18-2.55,0-3,.32.09.72-.1,1,0Z"/>
  <path class="cls-32" d="M266.01,226c-.19-4.37-4.98.63-1.99-6,1.35,1.87,5.03,1.62,5.79,2.23.53.42.09,1.69.2,1.77,1.52,2.39-3.3,4.73-4,2Z"/>
  <path class="cls-229" d="M264.01,231c-.93,1.42-1.5,6.45-3.99,4-.99-.97.88-4.92.99-6,1.05.06,2.23-.89,3-1,2.81.64,2.43,1.78,0,3Z"/>
  <path class="cls-23" d="M272.01,225c.28-.87.62-.86,1,0,1.31,1.92-3.76,4.63-5,3-1.6,2.1-2.89,3.12-4,0,.08-.65-.06-1.34,0-1.99.65.03,1.36-.1,1.99,0,2.07.31,1.66,1.54,4-2,.56.42,1.39.62,2,1Z"/>
  <path class="cls-60" d="M266.01,216c2.68-.46,2.03.59,2,3-.18.06-.19,1.55-1.99,1,.09-1.31-.16-2.7,0-4Z"/>
  <path class="cls-395" d="M275.01,222c1.89,1.55,1.43,2.21-1,2,1.33,1.46.74,2.02-1,1h-1c-.49-1.13.97-2.67,1-3,.64.09,1.42-.13,2,0Z"/>
  <path class="cls-13" d="M289.01,251c3.8-.64,2.61,2.73,1,5-.91.58-1.95.83-3,1-.08-.27-.92-.64-1-1-2.85.15-2.53-2.42,0-3-.79-.99-.5-3.81,1-4,.28-.87.62-.86,1,0,1.92-.36,2.46.72,1,2Z"/>
  <path class="cls-36" d="M295.01,250c.91,1.62-.21,3.14-2,2-.78,1.19-1,2.73-3,4,.76-2.28-.54-3.58-1-5-.99-1.95.68-2.7,2-1,3.26-1.27,2.18-.34,4,0Z"/>
  <path class="cls-336" d="M298.01,250c-.53.41-1.83,1.53-2,2s.12,1.39,0,2c-1.03-.62-1.97-1.38-3-2,.49-.75,1.38-1.34,2-2,.89.16,2.04-.11,3,0Z"/>
  <path class="cls-292" d="M286.01,253c-.01.91-.17,2.26,0,3-.61,0-3.84,1.84-4,2-.02-.63-.08-1.39,0-2-2.17-.62.14-4.17,2-3,.26-.9.59-.88,1,0,.28-.87.62-.86,1,0Z"/>
  <path class="cls-235" d="M284.01,253c-1.77.65-1.8,1.5-2,3h-2c.1-.61-.04-1.34,0-2,.44-1.79,1.1-2.45,2-2,.29-.92.62-.91,1,0,1.54-1.03,1.97-.49,1,1Z"/>
  <path class="cls-184" d="M280.01,256c-.64,3.87-2.52,3.72-3,0,.66-.19,2.11,0,3,0Z"/>
  <path class="cls-19" d="M301.01,234c-1.75.77-2-1.44-2,3,0,1,0,2,0,3-.1.04-.37,1.46-.98.99l-1.02-1.99c-.84-.24-.82-.58,0-1-2.12-.45-2.45-1.12-1-2,.61-.92,1.28-1.92,2-3l3,1Z"/>
  <path class="cls-34" d="M298.01,233c.04,2.37.67,3.47-2,3-1.42-.48-1.3-1.26,0-2,.39-.25.65-.74,1-1h1Z"/>
  <path class="cls-244" d="M295.01,244c1.04.58,1.91,3.03,5.01,2.01v1.99h-8.01c-3.64-.72-2.25-4.1,1-4,.83-1.93,1.38-2.11,2,0Z"/>
  <path class="cls-338" d="M294.01,238c.76-2.38,1.76-2.38,3,0,.04.29.04.71,0,1-.05.34.1.94,0,1-.5,1.06-1.17,2.06-2,3v1c-.35-.2-1.41.13-2,0-.34-.8-.68-2.13-1-4-.56.53-.89.2-1-1-.87-.28-.86-.62,0-1,1.04-2.63,1.73-2.53,3,0Z"/>
  <path class="cls-94" d="M297.01,240c.04,2.37.67,3.47-2,3-.65-4.41,1.07-2.44,2-3Z"/>
  <path class="cls-24" d="M292.01,240c.51.16,1.74-.24,1.99.04.14.15-.79,3.2-.99,3.96-.26.98-1.71,2.25-1,4h-1c-.05,1.64-2.64,1.98-3,0-.9-.8-1.57-2.13-2-4-.28.87-.62.86-1,0-1.39-1.37-.79-1.88,1-1l1.69-1.55c1.65.99,3.09.51,4.31-1.45Z"/>
  <path class="cls-280" d="M291.01,248v2c-.67.26-1.56.1-2,1-.12-.36-.7-.86-1-2-.77-.32-.77-.66,0-1h3Z"/>
  <path class="cls-242" d="M295.01,217c5.78,1.88,2.79,4.13,2,7,.61,1.01.4,2.92-1,3,.9.1.85.45,0,1-1.74,1.26-4.59,1.44-6,3,1.44,1.84,1.46,4.13-1,5-3.03,1.04-4.4-1.02-3-4-5.75,2.42-8.42,2.08-8-1-4.98.54-4.23-1.82-.85-4.48-.69-1.61-1.07-3.11-1.15-4.52.2-4.52.81-.49,1.69.01.63.36,1.91-.21,2.31-.01,1.05-.36,2.36.19,3.92,1.66-.16-1.75.53-1.64,2.08.34.24,1.59,1.57,1.92,4,1-.59-1.16-.37-2.33,1-2,2.64,5.66,5.74-2.37,4-6Z"/>
  <path class="cls-288" d="M290.01,231c.96-1.1,3.75,3.38,4,4,1.54.59,1.89,2.71,0,3-.9-.02-2.36.2-3,0-1.76,1.61-3.19.09-2-2-.11-2.09-.46-3.38,1-5Z"/>
  <path class="cls-122" d="M296.01,234c.1.63-.15,1.46,0,2,.18.66.91,1.43,1,2-1-.02-2,.03-3,0-.17-.86.25-2.37,0-3,.42-.86,1.54-.71,2-1Z"/>
  <path class="cls-107" d="M298.01,227c.07.99-.05,2.01,0,3l-.99,1c.44-1.24-.95-2.52-1.01-3-.04-.31,0-.68,0-1,.66-1.73,1.69-1.97,2,0Z"/>
  <path class="cls-321" d="M298.01,227h-2c.03-1.28.74-2.06,1-3,1.33.49.92,1.91,1,3Z"/>
  <path class="cls-126" d="M261.01,283c.03,4.55,1.17.38,2,0-.4,1.55.38,2.01,1,3-.48.84-1.1,2.06-1,3-.91,5.84-2.87-.96-2.97-4.45-.02-.79.93-1.33.97-1.55Z"/>
  <path class="cls-125" d="M291.01,221c0,.39.03,1.9,0,2-.15.53-.67,1.52-1,2-2.89.84-3.54-.45-1-2-.24-1.71.24-2.37,2-2Z"/>
  <path class="cls-137" d="M285.01,220c1.5.81,2.65,2.99,1,4-4.02,1.43-4.74-1.39-6-2v-2c1.04.68,2.54.64,3.99,3,.12-1.31-.12-2.69,0-4,.56.05.83.93,1,1Z"/>
  <path class="cls-408" d="M290.01,225c-2.07,3.08-2.22,3.26-6,1.99-.13-.15,1.68-2.73,2-2.99-.28-2.54.11-2.84,2-1,.28-.04.94-.05,1,0,.16.14-.06,1.74,1,2Z"/>
  <path class="cls-125" d="M285.01,220c1.69.66,2.27-.3,3,3-.11.02-1.91.93-2,1l-1-4Z"/>
  <path class="cls-363" d="M81.02,576c-1.4,3.11-8.93-1.85-11.03-2.47-9.46-2.79-18.4-1.13-27.98-.53.15-1.07-.26-2.43-.04-3.37.59-2.5,17.52-2.79,20.42-2.51s20.65,4.36,18.62,8.88Z"/>
  <path class="cls-67" d="M247.01,253c.81,1.43.81,3.43,0,6-.17,1.6.07,3.36,0,5h-1c-.29-1.81-.63-3.81-1-6-.03-1.58.23-3.56,0-5h2Z"/>
  <path class="cls-216" d="M244.01,238c.52,2.09,2.86,7.31-.49,6.99l-.51-.99c.27-1.82-.86-4.88,1-6Z"/>
  <path class="cls-198" d="M249.01,244c.04.66-.05,1.34,0,2-.12,3.23-.78,5.23-2,6,.54-2.99-1.66-8.88,2-8Z"/>
  <path class="cls-166" d="M249.01,253c-.28-.07-.66.02-1,0-.19.88-.52.84-1,0h-1c.29-.37.71-.64,1-1,1.85-2.27.21-6,2-6,.88,1.95.78,5.01,0,7Z"/>
  <path class="cls-306" d="M253.01,233c-.13,1.28.19,2.77,0,4-3.9.4-1.54-2.04-1-4h1Z"/>
  <path class="cls-234" d="M241.01,262l-.99,1c-.03-1.66,0-3.34-.01-5,1.66.03.87,2.73,1,4Z"/>
  <path class="cls-70" d="M246.01,264c-.32.07-.7-.09-1,0-.02-2,.04-4,0-6,1.77,1.12.86,4.12,1,6Z"/>
  <path class="cls-403" d="M251.01,257c.03,1-.02,2,0,3-.32,1.17-.79,1.17-1.99,1-.8-1.62.95-3.43.99-4,.28-.87.62-.86,1,0Z"/>
  <path class="cls-220" d="M250.01,253c-.21-.12-.65.09-1,0-.12-2.32.18-4.69,0-7l.99.5c.02,2.17.04,4.34,0,6.5Z"/>
  <path class="cls-156" d="M251.01,257h-1c.04-.45-.01-3.01,0-4,1.61.94.95,2.3,1,4Z"/>
  <path class="cls-156" d="M247.01,259v-6c.33,0,.67-.02,1,0,.99,2.2-.88,4.82-1,6Z"/>
  <path class="cls-253" d="M265.01,238c2.65,1.59.76,4.46-2,3-1.12,2.6-2.29,6.3,0,2,.99-2.7,3.18-1.82,3,1-1.52,3.03.13,6.8,0,10-3.67-.11-3.74,1.13-4-2,1.48-2.43,1.48-3.1,0-2-.08.08-1.49-.95-1.99-1.01-.83,1.33,1.65,8.63-1.49,7.98-3.99-.83-2.41-5.5-2.52-8.98,3.03-2.69,3.23-6.8,0-10,.97-4.28,5.62,1.44,9,0Z"/>
  <path class="cls-344" d="M266.01,235c-3.82-10.41,6.15-6.34,2,3,3.19,1,1.96,2.19,0,4-.55.47-1.75,1.5-2,2l-3-1c-1.51.1-1.46-1.57,0-2,.05-.17,1.58-1.43,2-3,.28-1.05.82-2.17,1-3Z"/>
  <path class="cls-33" d="M256.01,238c5.24-.75,4.26,5.08,4.01,8.54-.21,2.85-2.46,1.04-4.01,1.46-.08-2.58-.48-7.89,0-10Z"/>
  <path class="cls-78" d="M268.01,228c2.06-.71,2.73.62,2,4,2.02.51,2.01,1.44,0,2,2.7,1.6.88,4.84-2,4-.1-2.65.07-5.34,0-7.99h-1.99c-.23,1.55.3,3.58,0,4.99-2.21-.64-1.78-2.23-2-4-.1-.83-.1-2.16,0-3,1.24-.17,2.89.25,4,0Z"/>
  <path class="cls-127" d="M262.01,250c.33-.32.81-5.84,3.01,1.49l-3.01.51c-.06-.66.04-1.34,0-2Z"/>
  <path class="cls-87" d="M281.01,243c.9.18.86.52,0,1,1.67,1.78,1.34,2.45-1,2l-1.01-3.01c-.27-.33-1.42.84-1.99,1.01-1.34.39-4.28,1.65-4.53,1.66-.71.03-1.69-1.37-2.47-1.66-1.68.08-1.28-2.1,0-3-.64-2.75,1.63-3.85,4-3,2.55,3.2,3.29,2.77,2.2-1.28l1.8-1.72c2.11-1.49,2.65-.87,1.63,1.83,2.47,3.21,2.92,5.26,1.37,6.17Z"/>
  <path class="cls-93" d="M278.01,248c2.94,8.41.29,4.79-3,6-1.26-.78-1.67-1.52-1.5-3.03.38-3.53,1.67-.9,2.5-.97.38-1.6,1.05-2.26,2-2Z"/>
  <path class="cls-391" d="M276.01,246c2.78-.51,1.62.93,2,2-.34.87-1.02,1.92-2,2,.11-1.31-.16-2.7,0-4Z"/>
  <path class="cls-144" d="M270.01,244c-.09-.04-1.2.96-2,0-.11-.59.06-1.34,0-2,.34-1.7.71-2.55,2-1v3Z"/>
  <path class="cls-384" d="M276.01,222c5.14,2.84-2.84,7.57,2,9-1.14,1.65-2.48,3.32-4,5-2.53,3.6-3.73.09-4-2,.07-.54.1-1.51,0-2-1.26-3.02-.92-4.02,1-3q1.76,1.65,0,0l-.08-1.21c2.67-.81,3.7-2.07,3.08-3.79.42-.49.61-1.41,1-2,.35.08.79-.12,1,0Z"/>
  <path class="cls-195" d="M274.01,224c7.78,3.43-1.3,3.51-3,5-1.1.97-1.16,1.59-1,3-.16-.75-1.96-2.68-2-4,1.35-.31,4.04-2.13,5-3,.33-.3.71-.66,1-1Z"/>
  <path class="cls-58" d="M287.01,249c.02,1.24-.98,2.85-1,4h-1c-1.5-1.69-1-5.14,0-7-2.18-.14-2.15-1.48,0-2h1c1.24.79,1.4,3.54,1,5Z"/>
  <path class="cls-149" d="M286.01,244h2c.18,1.27-.22,2.81,0,4,.06.33-.08.7,0,1h-1c0-.51-1.97-3.31-1-5Z"/>
  <path class="cls-27" d="M285.01,253c-.31.08-.71-.11-1,0,.09-.83-.24-.94-1-1-1.45-3.8-1.11-5.8,1-6,.28-.87.62-.86,1,0-.21,2.3.15,4.69,0,7Z"/>
  <path class="cls-65" d="M281.01,244c2.15-.54,2.77-.16,3,2l-1,6c-.31-.02-.84-.08-1,0-.75-1.48-1.42-2.81-2-4,.04-.66-.01-1.34,0-2,.02-.93,1-1.84,1-2Z"/>
  <path class="cls-313" d="M280.01,248c3-.62,1.88,1.48,2,4-.23.11-.99,1.91-2,2,.13-1.98-.12-4.01,0-6Z"/>
  <path class="cls-233" d="M289.01,236c.48.48,1.68,1.9,2,2v1c1.32,2.12-.35,3.45-5,4-.1.31-.95.69-1,1-.1.61.06,1.35,0,2h-1c-1.67.35-2.23-.74-3-2,0-.33,0-.67,0-1-.12-1.95.22-3.28,1-4,.16-1.81-.17-2.15-1-1-4.51-3.32-2.85-5.32,5-6,.75,1.21,2.02,3.01,3,4Z"/>
  <path class="cls-65" d="M286.01,243c.43-1.28.75-2.67,1.01-4l3.51,2,.48-2c.95-.16.93.98,1,1,.29,5.11-2.36,3.72-6,3Z"/>
  <path class="cls-12" d="M286.01,232c.86,3.81-4.09.48-5.99,3.51-.62,1.66.86,2.17.99,2.49,1.3-1.07,1.72-.55,1,1,.26.4-.54,2.04.5,1.99l3.5-4.99c.7,3.96-1.59,5.71-4.99,7-.05-2.16-1.47-6.59-3-8-1.23,1.89-2.56,2.22-4,1,.2-3.28-.08-4.88,4-5,.19,0,1.53,1.38,3.34,1.05.26-.05,1.83-3.14,3.16-3.03,1.2.1,1.2,2.5,1.49,2.98Z"/>
  <path class="cls-30" d="M263.01,241c-.17.53.15,1.41,0,2-.2.82.14,2.05,0,2.99h-1.99s-.01-5.49-.01-5.49l2.01.5Z"/>
  <path class="cls-136" d="M270.01,234l1.34.02c.96,1.17.69,2.51,2.66,1.98,1.88.31,1.77,1.1,0,2-.83,1.72-2.58,2.07-4,3-.6.39-1.53.6-2,1-.11-1.31.05-2.68,0-4,.53-.87,1.91-3.28,2-4Z"/>
  <path class="cls-256" d="M278.01,235c.4,4.7,2.62,7.59-4,7-.02-1.33-.02-2.67,0-4,0-.66-.04-1.34,0-2,1.78-.48,1.85-2.98,4-1Z"/>
  <path class="cls-124" d="M281.01,238c-.48-3.33,2.78-2.96,1.99.5l-.99.5c-.26-.4-.88-.73-1-1Z"/>
  <path class="cls-183" d="M271.01,229h1.99c.32,1.48-.44,2.08-1.5,3l-.5-3Z"/>
</svg>